<svg width="50" height="50" viewBox="0 0 50 50" fill="none" xmlns="http://www.w3.org/2000/svg">
<path d="M29.2683 11.5417C29.69 11.4448 30.1315 11.4816 30.5313 11.647C30.9311 11.8123 31.2696 12.0981 31.4996 12.4646L33.5704 15.7709C33.7374 16.0372 33.9624 16.2622 34.2287 16.4292L37.535 18.5C37.9023 18.7299 38.1887 19.0685 38.3545 19.4688C38.5203 19.8691 38.5572 20.3111 38.46 20.7334L37.585 24.5334C37.5144 24.8405 37.5144 25.1596 37.585 25.4667L38.46 29.2688C38.5563 29.6904 38.5189 30.1315 38.3532 30.531C38.1874 30.9304 37.9015 31.2684 37.535 31.498L34.2287 33.5709C33.9624 33.7378 33.7374 33.9629 33.5704 34.2292L31.4996 37.5355C31.2699 37.9023 30.9315 38.1885 30.5317 38.3543C30.1318 38.5201 29.6902 38.5572 29.2683 38.4605L25.4662 37.5855C25.1598 37.5152 24.8414 37.5152 24.535 37.5855L20.7329 38.4605C20.311 38.5572 19.8694 38.5201 19.4696 38.3543C19.0697 38.1885 18.7314 37.9023 18.5017 37.5355L16.4308 34.2292C16.2633 33.9627 16.0375 33.7376 15.7704 33.5709L12.4662 31.5C12.0994 31.2703 11.8132 30.932 11.6474 30.5321C11.4816 30.1323 11.4445 29.6907 11.5412 29.2688L12.4142 25.4667C12.4847 25.1596 12.4847 24.8405 12.4142 24.5334L11.5392 20.7334C11.4422 20.3109 11.4793 19.8688 11.6455 19.4684C11.8117 19.0681 12.0986 18.7296 12.4662 18.5L15.7704 16.4292C16.0375 16.2625 16.2633 16.0374 16.4308 15.7709L18.5017 12.4646C18.7316 12.0985 19.0696 11.813 19.469 11.6476C19.8685 11.4823 20.3094 11.4453 20.7308 11.5417L24.535 12.4146C24.8414 12.4849 25.1598 12.4849 25.4662 12.4146L29.2683 11.5417Z" stroke="#FE6F15" stroke-width="2"/>
<path d="M19.8223 26.1165L24.0618 30.1769L30.1764 19.8228" stroke="#FE6F15" stroke-width="2" stroke-linecap="round" stroke-linejoin="round"/>
</svg>
