<svg width="197" height="32" viewBox="0 0 197 32" fill="none" xmlns="http://www.w3.org/2000/svg">
<g id="Clip path group">
<mask id="mask0_41_209" style="mask-type:luminance" maskUnits="userSpaceOnUse" x="0" y="0" width="197" height="32">
<g id="9494a26923">
<path id="Vector" d="M0 0H197V31.4305H0V0Z" fill="white"/>
</g>
</mask>
<g mask="url(#mask0_41_209)">
<g id="Group">
<path id="Vector_2" d="M193.818 17.917C190.764 17.9764 189.78 20.0348 189.015 22.05C188.088 19.4495 187.16 16.8491 186.233 14.2486C186.08 13.8182 185.361 13.6525 184.958 13.9821C183.474 15.1941 182.201 17.0796 180.157 17.7495C179.744 17.8846 179.334 17.8323 178.909 17.881C178.547 17.9224 178.183 17.8774 177.823 17.8864C177.448 17.8972 177.073 17.8918 176.697 17.9098C175.879 17.9458 175.033 18.0394 174.295 18.3402C173.522 18.6571 173.049 19.255 172.827 19.9105C172.141 21.9581 171.588 24.0471 171.051 26.1379C170.497 17.6234 169.942 9.11077 169.386 0.596291C169.344 -0.0484186 168.03 -0.266323 167.885 0.436014C167.189 3.84145 166.492 7.24508 165.795 10.6487C165.445 12.3505 165.098 14.0523 164.748 15.756C164.662 16.1774 164.566 17.8089 164.046 17.9278C163.122 18.1421 162.004 17.6541 161.103 17.9098C160.358 18.1223 159.962 18.668 159.614 19.1992C159.029 20.0942 158.625 21.0487 158.235 22.0068C157.426 19.2856 156.617 16.5645 155.809 13.8434C155.654 13.3248 154.741 13.2654 154.413 13.6994C153.669 14.688 153.126 15.81 152.223 16.7176C151.213 17.7351 149.803 17.5784 148.35 17.7495C146.459 17.9728 145.657 19.2568 145.034 20.5589C144.197 18.3546 143.361 16.1521 142.524 13.9479C142.324 13.422 141.501 13.3806 141.128 13.8038C140.547 14.4647 140.064 15.1779 139.545 15.8712C139.07 16.5069 138.35 17.7279 137.42 18.0232C136.822 18.2123 135.828 18.0322 135.207 17.998C134.303 17.9494 133.399 17.8846 132.491 17.9008C132.016 17.908 131.187 17.953 130.952 18.3654C130.327 19.4477 130.231 20.91 129.927 22.0788C129.549 23.5249 129.171 24.9728 128.792 26.4207C128.041 17.8125 127.289 9.20442 126.538 0.596291C126.482 -0.0412151 125.185 -0.271725 125.038 0.436014C124.35 3.7424 123.662 7.04878 122.976 10.3534C122.617 12.0732 122.261 13.793 121.902 15.511C121.764 16.181 121.666 16.8599 121.409 17.51C121.243 17.9332 120.89 17.7693 120.467 17.6757C118.562 17.2435 116.662 17.501 115.799 19.0443C115.275 19.9844 115.003 20.9821 114.753 21.9869C113.838 19.3055 112.921 16.6276 112.006 13.9479C111.834 13.4418 110.942 13.3536 110.611 13.8038C109.934 14.7187 109.424 15.7019 108.738 16.6132C108.354 17.121 107.888 17.5766 107.234 17.872C106.616 18.1529 105.597 18.0268 104.902 18.0827C102.8 18.252 101.572 19.138 100.358 20.2653C99.8128 18.3672 99.2672 16.4691 98.7215 14.571C98.5666 14.0379 97.6626 14.0091 97.3258 14.4269C96.4776 15.475 95.8816 16.6618 94.8335 17.6054C94.3094 18.0755 93.4108 17.8107 92.6958 17.7477C91.8224 17.6721 90.9958 17.6775 90.1908 17.9728C89.4291 18.2538 89.2454 18.9561 89.1463 19.5396C88.9446 20.7335 88.7411 21.9257 88.5376 23.1215C88.5052 23.3124 88.4728 23.5033 88.4404 23.6942C88.1054 15.9955 87.7705 8.29678 87.4355 0.596291C87.4067 -0.0574228 86.0903 -0.259119 85.9354 0.436014C85.3591 3.01665 84.7828 5.59729 84.2066 8.17792C83.6681 10.5929 82.9117 13.0385 82.6596 15.484C82.5966 16.0963 82.7154 17.3677 81.8006 17.6271C80.9218 17.8774 79.9457 17.6505 79.0507 17.9962C78.0098 18.3978 77.4263 19.1758 76.9473 19.9952C76.1801 18.0142 75.4147 16.0333 74.6476 14.0523C74.4549 13.5535 73.5977 13.4509 73.2519 13.9083C72.5244 14.8699 71.9841 15.9108 71.2097 16.8545C70.8135 17.3371 70.2949 17.7819 69.5872 17.9638C68.9244 18.1331 68.0564 18.0358 67.3577 18.1043C65.4254 18.2952 64.3556 19.21 63.3418 20.3103C62.4179 18.3276 61.4959 16.3466 60.5738 14.3639C60.3991 13.9893 59.6842 13.7066 59.297 14.0974C58.2291 15.1779 57.4061 16.4025 56.1851 17.3875C54.9858 18.3564 52.7221 17.2057 51.1823 17.8035C50.5214 18.0611 50.1576 18.4825 49.9974 19.0443C49.639 20.3085 49.5057 21.6412 49.2608 22.9234C49.0987 23.777 48.9367 24.6288 48.7746 25.4824C47.9822 17.1876 47.188 8.89287 46.3938 0.596291C46.3182 -0.19789 44.9946 -0.161873 44.8685 0.596291C44.294 4.00172 43.7214 7.40535 43.1487 10.809C42.8623 12.5108 42.576 14.2126 42.2897 15.9162C42.2068 16.4115 42.2446 17.8576 41.4307 18.0232C40.4204 18.2303 39.2876 17.9494 38.2611 18.0917C37.494 18.1979 37.078 18.9129 36.7862 19.4045C36.2532 20.3049 35.8894 21.2504 35.5346 22.1994C34.5856 19.5918 33.6365 16.9841 32.6875 14.3765C32.493 13.8416 31.6664 13.82 31.2918 14.2324C30.3517 15.2679 29.5071 16.4511 28.2663 17.2849C27.0958 18.0701 25.1995 18.0178 23.7714 18.0449C20.7153 18.1043 19.7339 20.1627 18.9667 22.1796C18.041 19.5774 17.1136 16.9769 16.1862 14.3765C16.0331 13.9461 15.3145 13.7804 14.9111 14.11C13.4254 15.3219 12.154 17.2075 10.1082 17.8792C9.50676 18.0755 8.71438 17.9656 8.08227 17.9656C7.24667 17.9656 6.41107 17.9656 5.57547 17.9656C3.73679 17.9656 1.89991 17.9656 0.0612293 17.9656C0.039619 17.9656 0.0216108 17.9692 0 17.971V19.1668C0.0216108 19.1686 0.039619 19.1722 0.0612293 19.1722C2.06559 19.1722 4.06995 19.1722 6.07611 19.1722C7.55642 19.1722 9.36089 19.4189 10.7602 18.9615C12.5934 18.3618 13.8234 16.9769 15.093 15.7632C16.1267 18.6607 17.1586 21.5583 18.1923 24.4541C18.4084 25.0646 19.4097 24.9908 19.6636 24.4541C20.2831 23.1485 20.5659 21.7294 21.3762 20.4868C22.3793 18.9489 24.4089 19.3217 26.244 19.1182C28.8858 18.8264 30.2761 17.4632 31.6574 15.9144C32.6929 18.7598 33.7302 21.607 34.7657 24.4541C34.9854 25.0556 35.9921 25.0016 36.2388 24.4541C36.9465 22.8784 37.3427 21.2072 38.2954 19.7016C38.443 19.4693 38.5205 19.2748 38.8176 19.2694C39.4605 19.2586 40.1034 19.2712 40.7445 19.2694C41.5117 19.264 42.2915 19.1938 42.8461 18.7364C43.4638 18.2285 43.5557 17.3875 43.6781 16.732C43.9951 15.023 44.2562 13.3068 44.5443 11.596C44.8361 9.85633 45.1278 8.1203 45.4214 6.38246C46.2011 14.535 46.9809 22.6893 47.7607 30.8418C47.8219 31.4757 49.1257 31.7152 49.2608 31.0021C49.702 28.6753 50.145 26.3468 50.5862 24.0183C50.8078 22.8568 51.0293 21.6916 51.249 20.5282C51.3282 20.1176 51.2616 19.201 51.7478 18.9255C52.1098 18.7202 52.7473 18.794 53.1615 18.8102C54.8147 18.8769 55.96 19.2064 57.2638 18.2411C58.2165 17.5388 58.8918 16.6474 59.6158 15.792C60.5414 17.7783 61.4653 19.7665 62.3891 21.7528C62.625 22.2589 63.3904 22.3345 63.7848 21.8969C64.4709 21.1333 65.1192 20.1555 66.1331 19.6332C67.1956 19.0858 68.5679 19.3559 69.7366 19.1686C71.8022 18.8372 72.8125 17.2507 73.7255 15.792C74.5071 17.8125 75.2887 19.8349 76.0703 21.8555C76.2521 22.3273 77.1544 22.4876 77.4659 21.9995C77.9125 21.299 78.2817 20.5679 78.7481 19.8781C79.256 19.1272 80.0322 18.9219 81.0676 18.875C83.2341 18.7742 83.904 17.836 84.1147 16.208C84.5541 12.826 85.3375 9.45113 86.1479 6.08892C86.5063 14.3405 86.8646 22.5902 87.223 30.8418C87.2518 31.4919 88.6043 31.7008 88.7231 31.0021C88.7321 30.948 88.7411 30.8958 88.7501 30.8418C89.1481 28.5079 89.5443 26.1721 89.9423 23.84C90.1458 22.6443 90.3475 21.4521 90.551 20.2563C90.6086 19.9214 90.5474 19.2424 90.9598 19.0155C91.32 18.8174 91.9881 18.9093 92.3933 18.9327C94.0609 19.0227 95.0946 19.2766 96.2327 18.1565C96.7982 17.6018 97.2376 16.9859 97.6716 16.3664C98.1885 18.1619 98.7053 19.9574 99.2204 21.7528C99.341 22.1688 100.133 22.3687 100.497 22.0176C101.299 21.245 102.066 20.3121 103.125 19.7395C104.196 19.1614 105.637 19.2712 106.863 19.1884C109.015 19.0461 110.125 17.3191 111.052 15.7866C112.062 18.7454 113.074 21.7024 114.086 24.6612C114.285 25.2465 115.347 25.2303 115.558 24.6612C116.188 22.9594 116.3 21.1207 117.213 19.4819C118.221 17.6757 120.562 19.5972 122.091 18.7634C123.058 18.2357 123.123 17.0436 123.292 16.2296C123.649 14.5098 124.007 12.7899 124.364 11.0719C124.731 9.31067 125.097 7.54942 125.464 5.78818C126.192 14.1406 126.923 22.4912 127.651 30.8418C127.706 31.4865 128.967 31.7044 129.151 31.0021C129.866 28.2647 130.581 25.5274 131.297 22.7901C131.467 22.1382 131.638 21.4863 131.807 20.8344C131.848 20.6777 132.275 19.0876 132.059 19.1452C132.736 18.9633 133.712 19.1236 134.409 19.1614C135.767 19.2316 137.516 19.5702 138.645 18.7958C139.92 17.9224 140.703 16.7158 141.542 15.5633C142.432 17.9026 143.32 20.2437 144.21 22.583C144.381 23.0368 145.324 23.2349 145.605 22.7271C146.126 21.7834 146.475 20.766 147.089 19.8565C147.829 18.758 149.158 18.9867 150.482 18.812C152.753 18.5131 153.81 17.1246 154.788 15.6785C155.645 18.5689 156.504 21.4593 157.363 24.3497C157.55 24.9818 158.584 24.8665 158.834 24.3497C159.596 22.7883 160.061 21.1405 161.04 19.6458C161.166 19.4513 161.62 19.0695 161.402 19.0876C162.047 19.0353 162.755 19.1416 163.403 19.1578C164.159 19.1776 164.943 19.093 165.416 18.5779C165.951 17.9962 166 17.1498 166.14 16.4691C166.49 14.7655 166.837 13.0655 167.187 11.3637C167.532 9.66544 167.882 7.96722 168.228 6.27081C168.762 14.4611 169.297 22.6515 169.832 30.8418C169.874 31.4955 171.138 31.6936 171.332 31.0021C172.253 27.7029 173.241 24.4109 174.066 21.0955C174.185 20.6147 174.239 19.7269 174.81 19.4117C175.879 18.8246 177.403 19.1092 178.615 19.1092C178.874 19.111 179.132 19.1038 179.388 19.0858C179.872 19.0533 180.356 18.9795 180.808 18.8318C182.64 18.2321 183.868 16.8473 185.141 15.6353C186.173 18.5329 187.207 21.4287 188.239 24.3263C188.457 24.9368 189.456 24.8629 189.71 24.3263C190.331 23.0206 190.612 21.6016 191.425 20.359C192.428 18.821 194.455 19.1938 196.29 18.9903C196.539 18.9633 196.773 18.9237 197.002 18.8769V17.6829C195.974 17.9152 194.789 17.8972 193.818 17.917Z" fill="#002A40"/>
</g>
</g>
</g>
</svg>
