<svg width="18" height="18" viewBox="0 0 18 18" fill="none" xmlns="http://www.w3.org/2000/svg">
<g id="eva:phone-fill">
<path id="Vector" d="M13.05 16.5001C9.98797 16.4961 7.05249 15.2779 4.8873 13.1128C2.72211 10.9476 1.50397 8.01209 1.5 4.95006C1.5 4.03506 1.86348 3.15754 2.51048 2.51054C3.15748 1.86354 4.035 1.50006 4.95 1.50006C5.14374 1.49887 5.33715 1.51645 5.5275 1.55256C5.71129 1.58072 5.89207 1.62592 6.0675 1.68756C6.19069 1.73078 6.30046 1.80541 6.38596 1.90406C6.47146 2.00271 6.52973 2.12198 6.555 2.25006L7.5825 6.75006C7.6102 6.8722 7.60686 6.99934 7.5728 7.11987C7.53874 7.2404 7.47503 7.35047 7.3875 7.44006C7.29 7.54506 7.2825 7.55256 6.36 8.03256C7.09819 9.65359 8.39451 10.9552 10.0125 11.7001C10.5 10.7701 10.5075 10.7626 10.6125 10.6651C10.7021 10.5775 10.8122 10.5138 10.9327 10.4798C11.0532 10.4457 11.1804 10.4424 11.3025 10.4701L15.8025 11.4976C15.9265 11.5263 16.0411 11.5862 16.1356 11.6714C16.23 11.7567 16.3012 11.8647 16.3425 11.9851C16.4059 12.163 16.4536 12.3462 16.485 12.5326C16.5145 12.7211 16.5295 12.9117 16.53 13.1026C16.5162 14.0136 16.1425 14.8823 15.4905 15.5188C14.8385 16.1553 13.9612 16.5081 13.05 16.5001Z" fill="white"/>
</g>
</svg>
