<svg width="50" height="50" viewBox="0 0 50 50" fill="none" xmlns="http://www.w3.org/2000/svg">
<g id="fluent:star-emphasis-20-regular">
<path id="Vector" d="M22.7597 7.2499C22.966 6.83124 23.2854 6.47869 23.6817 6.23217C24.078 5.98564 24.5355 5.85498 25.0022 5.85498C25.4689 5.85498 25.9264 5.98564 26.3227 6.23217C26.719 6.47869 27.0384 6.83124 27.2447 7.2499L32.0697 17.0249L42.8622 18.5949C43.324 18.662 43.7577 18.8569 44.1144 19.1577C44.4712 19.4584 44.7366 19.853 44.8807 20.2968C45.0248 20.7406 45.0419 21.2158 44.9299 21.6688C44.8179 22.1218 44.5815 22.5344 44.2472 22.8599L36.4372 30.4699L38.2822 41.2199C38.361 41.6797 38.3096 42.1523 38.1338 42.5843C37.958 43.0164 37.6648 43.3907 37.2874 43.6648C36.91 43.9389 36.4634 44.102 35.9982 44.1356C35.5329 44.1692 35.0676 44.072 34.6547 43.8549L25.0047 38.7799L15.3497 43.8549C14.9367 44.0715 14.4714 44.1683 14.0063 44.1343C13.5411 44.1002 13.0948 43.9368 12.7177 43.6624C12.3406 43.3881 12.0478 43.0137 11.8723 42.5816C11.6968 42.1496 11.6457 41.677 11.7247 41.2174L13.5672 30.4699L5.7572 22.8599C5.42295 22.5344 5.18646 22.1218 5.07451 21.6688C4.96256 21.2158 4.9796 20.7406 5.12371 20.2968C5.26782 19.853 5.53325 19.4584 5.88997 19.1577C6.24668 18.8569 6.68045 18.662 7.1422 18.5949L17.9347 17.0274L22.7597 7.2499ZM25.0022 8.3549L20.1772 18.1324C19.9978 18.4959 19.7327 18.8103 19.4047 19.0485C19.0768 19.2867 18.6958 19.4417 18.2947 19.4999L7.4997 21.0699L15.3097 28.6799C15.5996 28.9629 15.8164 29.3122 15.9414 29.6976C16.0664 30.0831 16.0959 30.4931 16.0272 30.8924L14.1847 41.6424L23.8347 36.5674C24.1936 36.3787 24.593 36.28 24.9985 36.28C25.4039 36.28 25.8033 36.3787 26.1622 36.5674L35.8147 41.6424L33.9722 30.8924C33.9036 30.4931 33.933 30.0831 34.058 29.6976C34.183 29.3122 34.3998 28.9629 34.6897 28.6799L42.4997 21.0699L31.7072 19.4999C31.3065 19.4413 30.9261 19.2862 30.5986 19.048C30.2711 18.8098 30.0064 18.4956 29.8272 18.1324L25.0022 8.3549ZM10.9772 31.7199C11.0797 31.8482 11.1559 31.9955 11.2015 32.1533C11.247 32.3111 11.261 32.4764 11.2427 32.6396C11.2243 32.8028 11.174 32.9608 11.0946 33.1046C11.0151 33.2483 10.9081 33.375 10.7797 33.4774L4.5297 38.4774C4.40207 38.5849 4.2542 38.6657 4.09483 38.7151C3.93546 38.7646 3.7678 38.7816 3.60175 38.7652C3.43569 38.7488 3.2746 38.6993 3.12797 38.6197C2.98134 38.5401 2.85214 38.4319 2.74798 38.3015C2.64383 38.1711 2.56683 38.0212 2.52152 37.8607C2.47621 37.7001 2.46352 37.532 2.48418 37.3664C2.50484 37.2009 2.55845 37.0411 2.64184 36.8966C2.72522 36.752 2.8367 36.6257 2.9697 36.5249L9.2197 31.5249C9.47843 31.3184 9.80851 31.2229 10.1375 31.2595C10.4665 31.2961 10.7701 31.4616 10.9772 31.7199ZM10.7772 12.7749C10.9141 12.8742 11.0294 13.0003 11.1162 13.1454C11.2029 13.2906 11.2594 13.4518 11.282 13.6194C11.3046 13.787 11.293 13.9575 11.2479 14.1204C11.2027 14.2834 11.125 14.4355 11.0193 14.5676C10.9137 14.6997 10.7823 14.8089 10.6332 14.8887C10.4841 14.9685 10.3204 15.0173 10.1519 15.032C9.98346 15.0467 9.81375 15.0271 9.65308 14.9743C9.49242 14.9215 9.34413 14.8367 9.2172 14.7249L2.9672 9.7249C2.83031 9.6256 2.71499 9.49956 2.62823 9.3544C2.54146 9.20923 2.48505 9.04798 2.46242 8.88038C2.43978 8.71279 2.45139 8.54234 2.49654 8.37937C2.54169 8.21639 2.61944 8.06427 2.72509 7.93221C2.83073 7.80015 2.96208 7.69091 3.11117 7.61108C3.26026 7.53126 3.424 7.48252 3.59247 7.46781C3.76095 7.45311 3.93066 7.47274 4.09132 7.52553C4.25199 7.57831 4.40028 7.66315 4.5272 7.7749L10.7772 12.7749ZM39.0222 31.7199C38.9196 31.8481 38.8432 31.9952 38.7974 32.153C38.7517 32.3107 38.7375 32.4758 38.7556 32.6391C38.7737 32.8023 38.8238 32.9603 38.903 33.1042C38.9822 33.248 39.089 33.3748 39.2172 33.4774L45.4672 38.4774C45.5948 38.5849 45.7427 38.6657 45.9021 38.7151C46.0614 38.7646 46.2291 38.7816 46.3952 38.7652C46.5612 38.7488 46.7223 38.6993 46.8689 38.6197C47.0156 38.5401 47.1448 38.4319 47.2489 38.3015C47.3531 38.1711 47.4301 38.0212 47.4754 37.8607C47.5207 37.7001 47.5334 37.532 47.5127 37.3664C47.4921 37.2009 47.4385 37.0411 47.3551 36.8966C47.2717 36.752 47.1602 36.6257 47.0272 36.5249L40.7772 31.5249C40.649 31.4223 40.5019 31.3459 40.3442 31.3001C40.1864 31.2544 40.0213 31.2402 39.8581 31.2583C39.6948 31.2764 39.5368 31.3265 39.3929 31.4057C39.2491 31.4849 39.1223 31.5917 39.0197 31.7199M39.2147 12.7749C38.9735 12.9872 38.8234 13.2843 38.7955 13.6044C38.7675 13.9245 38.8639 14.243 39.0647 14.4939C39.2654 14.7449 39.555 14.9088 39.8734 14.9518C40.1919 14.9948 40.5146 14.9136 40.7747 14.7249L47.0247 9.7249C47.1616 9.6256 47.2769 9.49956 47.3637 9.3544C47.4504 9.20923 47.5069 9.04798 47.5295 8.88038C47.5521 8.71279 47.5405 8.54234 47.4954 8.37937C47.4502 8.21639 47.3725 8.06427 47.2668 7.93221C47.1612 7.80015 47.0298 7.69091 46.8807 7.61108C46.7316 7.53126 46.5679 7.48252 46.3994 7.46781C46.231 7.45311 46.0612 7.47274 45.9006 7.52553C45.7399 7.57831 45.5916 7.66315 45.4647 7.7749L39.2147 12.7749Z" fill="black"/>
</g>
</svg>
