<svg width="50" height="50" viewBox="0 0 50 50" fill="none" xmlns="http://www.w3.org/2000/svg">
<g id="fluent:select-all-on-24-filled">
<path id="Vector" d="M6.25 13.0208C6.25 11.2251 6.96335 9.50291 8.23313 8.23313C9.50291 6.96335 11.2251 6.25 13.0208 6.25H32.8125C34.6082 6.25 36.3304 6.96335 37.6002 8.23313C38.87 9.50291 39.5833 11.2251 39.5833 13.0208V32.8125C39.5833 34.6082 38.87 36.3304 37.6002 37.6002C36.3304 38.87 34.6082 39.5833 32.8125 39.5833H13.0208C11.2251 39.5833 9.50291 38.87 8.23313 37.6002C6.96335 36.3304 6.25 34.6082 6.25 32.8125V13.0208ZM31.8333 18.8125C32.1093 18.5163 32.2596 18.1245 32.2525 17.7197C32.2453 17.315 32.0813 16.9287 31.795 16.6425C31.5088 16.3562 31.1226 16.1922 30.7178 16.1851C30.313 16.1779 29.9212 16.3282 29.625 16.6042L20.8333 25.3958L16.7292 21.2917C16.5861 21.1382 16.4136 21.015 16.222 20.9296C16.0303 20.8442 15.8234 20.7983 15.6136 20.7946C15.4038 20.7909 15.1954 20.8295 15.0008 20.9081C14.8063 20.9867 14.6295 21.1036 14.4812 21.252C14.3328 21.4004 14.2158 21.5771 14.1372 21.7717C14.0587 21.9662 14.0201 22.1746 14.0238 22.3844C14.0275 22.5942 14.0734 22.8011 14.1588 22.9928C14.2442 23.1845 14.3673 23.357 14.5208 23.5L19.7292 28.7083C20.0221 29.0009 20.4193 29.1653 20.8333 29.1653C21.2474 29.1653 21.6445 29.0009 21.9375 28.7083L31.8333 18.8125ZM13.5417 41.6667C14.1543 42.6254 14.9986 43.4143 15.9967 43.9604C16.9947 44.5066 18.1144 44.7925 19.2521 44.7917H33.8458C35.2833 44.7917 36.7066 44.5085 38.0346 43.9585C39.3626 43.4084 40.5693 42.6021 41.5857 41.5857C42.6021 40.5693 43.4084 39.3626 43.9585 38.0346C44.5085 36.7066 44.7917 35.2833 44.7917 33.8458V19.2521C44.7923 18.1142 44.5061 16.9944 43.9595 15.9964C43.413 14.9983 42.6237 14.154 41.6646 13.5417V33.8458C41.6649 34.8728 41.4628 35.8897 41.07 36.8386C40.6772 37.7874 40.1013 38.6496 39.3753 39.3759C38.6492 40.1021 37.7872 40.6782 36.8384 41.0713C35.8897 41.4644 34.8728 41.6667 33.8458 41.6667H13.5417Z" fill="#002A40"/>
</g>
</svg>
