<svg width="217" height="68" viewBox="0 0 217 68" fill="none" xmlns="http://www.w3.org/2000/svg">
<g id="Untitled design 4">
<path id="Vector" d="M179.784 38.0784C181.361 36.6081 182.263 34.5654 182.898 32.5137C183.535 30.462 183.947 28.3388 184.752 26.3462C185.558 24.3553 186.828 22.4503 188.723 21.4129C190.616 20.3754 193.215 20.4219 194.752 21.9352C195.904 23.0692 196.278 24.8097 196.108 26.4124C195.936 28.0151 195.292 29.5247 194.654 31.0076C196.645 28.7878 200.909 29.1008 203.099 31.1292C205.293 33.1576 205.379 37.0052 203.283 39.1284C202.019 40.4091 200.193 41.0173 198.392 41.1532C196.591 41.2874 194.788 40.9922 193.007 40.6989C188.67 39.9834 184.121 38.7939 179.784 38.0784Z" fill="#002A40"/>
<g id="Clip path group">
<mask id="mask0_44_2931" style="mask-type:luminance" maskUnits="userSpaceOnUse" x="5" y="14" width="49" height="34">
<g id="7277493eb8">
<path id="Vector_2" d="M5.71973 14.4834H53.2988V47.4173H5.71973V14.4834Z" fill="white"/>
</g>
</mask>
<g mask="url(#mask0_44_2931)">
<g id="Group">
<path id="Vector_3" d="M6.64909 38.3808C7.39954 38.3808 8.14819 38.3808 8.89865 38.3808C9.27117 38.3808 9.72687 38.0964 9.79378 37.7029C9.81548 37.5795 9.84984 37.465 9.886 37.3469C9.94206 37.1609 9.7992 37.4954 9.89143 37.3398C9.92398 37.2861 9.9511 37.2307 9.98365 37.177C10.0035 37.1448 10.0506 37.0375 10.0903 37.0196C10.0144 37.1144 9.99812 37.1341 10.0433 37.0822C10.0632 37.0571 10.0831 37.0339 10.1048 37.0106C10.1916 36.9141 10.2875 36.8282 10.3833 36.7423C10.5479 36.5992 10.2187 36.8497 10.4032 36.7298C10.4574 36.694 10.5099 36.6583 10.5659 36.6243C10.622 36.5921 10.6799 36.5599 10.7377 36.5295C10.7667 36.5152 10.7956 36.5009 10.8245 36.4883C10.8878 36.4597 10.8643 36.4687 10.7522 36.517C10.8715 36.5009 10.9963 36.4293 11.1175 36.3989C11.1735 36.3864 11.2513 36.3828 11.3037 36.3613C11.1247 36.4311 11.1952 36.3739 11.3055 36.3685C11.3688 36.3649 11.4321 36.3649 11.4954 36.3667C11.5171 36.3685 11.5388 36.3703 11.5605 36.3703C11.6636 36.381 11.6455 36.3774 11.5027 36.3595C11.5424 36.3256 11.8245 36.4329 11.8752 36.449C11.8951 36.4561 11.9168 36.4633 11.9367 36.4704C12.0307 36.5062 12.0162 36.4991 11.8914 36.449C11.933 36.4436 12.0307 36.5152 12.0632 36.5331C12.1193 36.5653 12.1754 36.5974 12.2296 36.6314C12.2477 36.644 12.264 36.6565 12.282 36.6672C12.3634 36.7262 12.3526 36.7155 12.2495 36.6368C12.3453 36.6726 12.4611 36.8246 12.5298 36.898C12.5515 36.9212 12.6835 37.0482 12.5822 36.9498C12.4828 36.855 12.6202 37.0071 12.6401 37.0375C12.6745 37.0911 12.707 37.1448 12.7377 37.2002C12.7522 37.2271 12.8481 37.4274 12.7884 37.2915C12.7287 37.1537 12.8083 37.3594 12.8191 37.3881C12.8408 37.4596 12.8571 37.5312 12.8734 37.6045C12.9801 38.1036 13.5515 38.3611 14.018 38.2484C14.1121 38.2252 14.2079 38.2055 14.3056 38.1876C14.3526 38.1787 14.4014 38.1715 14.4502 38.1626C14.3255 38.1787 14.3164 38.1805 14.4231 38.1679C14.6238 38.1518 14.8209 38.1375 15.0217 38.1393C15.1989 38.1393 15.3761 38.1483 15.5515 38.1644C15.5985 38.1679 15.9295 38.1876 15.6853 38.1769C15.7848 38.1805 15.8897 38.2091 15.9873 38.227C16.3635 38.3003 16.736 38.4005 17.0976 38.5275C17.1935 38.5615 17.2875 38.599 17.3834 38.6348C17.481 38.6742 17.4756 38.6706 17.3689 38.6259C17.4159 38.6455 17.4611 38.667 17.5063 38.6867C17.6745 38.7618 17.8391 38.8405 18 38.9282C18.1537 39.0104 18.3038 39.0999 18.4485 39.1947C18.5262 39.2465 18.604 39.2984 18.6781 39.3521C18.7161 39.3789 18.7541 39.4075 18.792 39.4344C18.6962 39.361 18.6872 39.3557 18.7685 39.4183C19.0362 39.6436 19.293 39.8762 19.5262 40.1355C19.5877 40.2053 19.6474 40.2751 19.7071 40.3466C19.7378 40.3824 19.7667 40.4182 19.7957 40.4557C19.7197 40.3609 19.7143 40.3538 19.7758 40.4343C19.868 40.5684 19.962 40.699 20.0488 40.8367C20.1465 40.9941 20.2387 41.1551 20.3219 41.3197C20.3653 41.4037 20.4033 41.4878 20.4431 41.5701C20.4846 41.6649 20.481 41.656 20.4322 41.5415C20.4485 41.5844 20.4666 41.6273 20.4828 41.6703C20.6528 42.1031 21.0145 42.3965 21.5027 42.3303C21.9783 42.2677 22.2767 41.8885 22.3093 41.4252C22.548 38.0427 22.7686 34.6603 22.9874 31.276C23.2026 27.9025 23.416 24.5272 23.6384 21.1536C23.7668 19.2343 23.8952 17.3168 24.0308 15.3975C23.4214 15.478 22.812 15.5603 22.2044 15.6426C22.5498 17.646 22.8716 19.6547 23.1646 21.667C23.2405 22.1786 23.3129 22.6919 23.3852 23.2071C23.4666 23.792 23.4883 23.9637 23.566 24.545C23.6981 25.5432 23.821 26.5413 23.9386 27.5394C24.4123 31.564 24.774 35.6029 25.0127 39.6472C25.1483 41.9278 25.2442 44.2102 25.302 46.4944C25.3147 46.9774 25.7216 47.4407 26.2315 47.4174C26.7451 47.3942 27.1502 47.0114 27.1628 46.4944C27.1827 45.575 27.255 44.6556 27.3762 43.7434C27.3527 43.9223 27.3871 43.6611 27.3961 43.6074C27.4124 43.4948 27.4305 43.3821 27.4467 43.2694C27.4865 43.0297 27.5263 42.7882 27.5715 42.5485C27.6511 42.1174 27.7361 41.6864 27.8337 41.2571C27.9223 40.8707 28.0236 40.4861 28.1628 40.1159C28.1737 40.0872 28.2297 39.9388 28.1845 40.055C28.1429 40.1606 28.1881 40.0461 28.1972 40.03C28.2388 39.9406 28.2804 39.8529 28.3256 39.7671C28.3726 39.6812 28.4214 39.5971 28.4757 39.5149C28.5155 39.4522 28.6674 39.2609 28.5426 39.4057C28.6728 39.2573 28.8048 39.1213 28.9531 38.9908C28.9929 38.955 29.0507 38.8727 28.9368 39.0015C28.9621 38.9729 29.0254 38.9389 29.0561 38.9192C29.1357 38.8655 29.2189 38.8155 29.3039 38.769C29.3889 38.7225 29.4775 38.6813 29.5643 38.6384C29.6149 38.6151 29.6927 38.5507 29.5444 38.6455C29.5788 38.6241 29.6475 38.608 29.6836 38.5954C29.8681 38.5293 30.058 38.4774 30.2496 38.4345C30.3563 38.4112 30.4666 38.3951 30.5751 38.3736C30.709 38.3486 30.4142 38.3862 30.5661 38.3754C30.6384 38.3701 30.7108 38.3611 30.7831 38.354C31.0435 38.3343 31.3057 38.3289 31.5679 38.3343C32.0923 38.3432 32.6168 38.3933 33.1394 38.4416C33.53 38.4792 33.9459 38.1304 34.0363 37.7637C34.0707 37.6206 34.1159 37.4847 34.1665 37.3451C34.2207 37.1913 34.0942 37.4954 34.1882 37.3058C34.2244 37.2289 34.266 37.1555 34.3075 37.0822C34.3455 37.0178 34.3853 36.9552 34.4269 36.8926C34.4468 36.864 34.5878 36.6672 34.5065 36.7781C34.4251 36.8872 34.5788 36.694 34.5969 36.6726C34.6547 36.6082 34.7144 36.5438 34.7759 36.483C34.8302 36.4293 34.8862 36.3774 34.9423 36.3274C34.9766 36.2969 35.1068 36.2182 35.1177 36.1807C35.1159 36.1843 34.9748 36.2844 35.058 36.2254C35.0851 36.2057 35.1123 36.186 35.1376 36.1682C35.2099 36.1181 35.2822 36.0698 35.3564 36.0233C35.4866 35.9446 35.6204 35.8712 35.7596 35.805C35.7831 35.7943 35.8446 35.7568 35.8772 35.7514C35.879 35.7514 35.7054 35.8176 35.8048 35.7836C35.8862 35.755 35.9676 35.7228 36.049 35.6977C36.1918 35.653 36.3383 35.6154 36.4848 35.5886C36.7217 35.5457 36.351 35.594 36.5209 35.5815C36.6059 35.5743 36.6909 35.5671 36.7759 35.5654C36.8483 35.5636 37.1719 35.5332 37.2226 35.585C37.2262 35.5904 37.0273 35.5528 37.134 35.5743C37.1774 35.5832 37.219 35.5904 37.2624 35.5976C37.3455 35.6154 37.4287 35.6351 37.5119 35.6584C37.5842 35.678 37.6548 35.7013 37.7271 35.7263C37.756 35.7371 37.7868 35.7496 37.8175 35.7585C37.9387 35.7979 37.6584 35.6852 37.7741 35.7389C37.9188 35.8086 38.0635 35.8784 38.2009 35.9625C38.266 36 38.3293 36.0412 38.3908 36.0841C38.4179 36.102 38.4432 36.1199 38.4703 36.1395C38.5589 36.2004 38.4794 36.1968 38.436 36.1127C38.4577 36.1556 38.5463 36.2039 38.5843 36.2361C38.6494 36.2934 38.7108 36.3524 38.7723 36.4132C38.8338 36.474 38.8917 36.5366 38.9477 36.601C38.9604 36.6153 39.0237 36.6762 39.0309 36.6994C39.0074 36.6189 38.9387 36.576 39.0219 36.6905C39.1213 36.83 39.2117 36.9749 39.2913 37.1269C39.313 37.1645 39.4269 37.3952 39.3691 37.2754C39.3112 37.1555 39.4125 37.397 39.4251 37.4346C39.483 37.6063 39.5246 37.7834 39.5535 37.9622C39.6186 38.3558 40.0743 38.6384 40.4505 38.6384C41.7253 38.6384 43.0002 38.6151 44.2769 38.6151C44.823 38.6151 45.1467 38.1894 45.2064 37.6921C45.1738 37.973 45.2136 37.685 45.2281 37.626C45.2425 37.5634 45.2606 37.5008 45.2805 37.4399C45.2932 37.3988 45.3076 37.3577 45.3239 37.3165C45.3601 37.2217 45.3547 37.236 45.3058 37.3559C45.3076 37.304 45.3709 37.2199 45.3944 37.177C45.4613 37.0536 45.5427 36.8711 45.6476 36.7799C45.4867 36.9194 45.6331 36.8014 45.6729 36.7549C45.7326 36.6869 45.7959 36.6225 45.861 36.5581C45.9098 36.5116 45.9586 36.4651 46.0111 36.4222C46.0454 36.3917 46.0798 36.3631 46.1142 36.3363C46.0237 36.4043 46.0057 36.4186 46.0617 36.3792C46.1847 36.3023 46.3004 36.2218 46.4306 36.1556C46.4704 36.136 46.5102 36.1163 46.55 36.0984C46.427 36.1485 46.4125 36.1556 46.5084 36.1181C46.5699 36.1002 46.6295 36.0787 46.6928 36.0608C46.7652 36.0412 46.8375 36.0286 46.9116 36.0143C46.9822 36.0018 46.9532 36.0072 46.8212 36.0268C46.8628 36.0233 46.9062 36.0197 46.9478 36.0197C47.0111 36.0179 47.0762 36.0197 47.1395 36.0233C47.1829 36.0251 47.2245 36.0286 47.2679 36.034C47.1268 36.0125 47.1069 36.0107 47.21 36.0286C47.3456 36.0573 47.4776 36.0895 47.6096 36.1377C47.8339 36.2182 47.4885 36.0662 47.6512 36.1556C47.7073 36.186 47.767 36.2129 47.8212 36.2433C47.8972 36.2862 47.9659 36.3345 48.0382 36.381C48.2191 36.4955 47.8936 36.2486 48.0545 36.39C48.1666 36.4901 48.2751 36.5903 48.3746 36.703C48.4035 36.7334 48.4306 36.7674 48.4578 36.7996C48.3836 36.7048 48.3673 36.6851 48.4071 36.7405C48.4469 36.8032 48.4903 36.8622 48.5283 36.9266C48.5608 36.9802 48.5916 37.0375 48.6205 37.0929C48.6386 37.1323 48.6567 37.1698 48.6748 37.2074C48.6223 37.084 48.6151 37.0697 48.6512 37.1645C48.691 37.3076 48.7344 37.4471 48.7597 37.5956C48.8248 37.9891 49.2787 38.2717 49.6549 38.2717C50.5446 38.2717 51.4343 38.2627 52.3222 38.2627C52.8086 38.2627 53.2752 37.8388 53.2516 37.3398C53.2299 36.8407 52.843 36.4168 52.3222 36.4186C51.4343 36.4186 50.5446 36.4275 49.6549 36.4275C49.9551 36.6529 50.2534 36.8783 50.5536 37.1054C50.333 35.7907 49.2444 34.7032 47.9822 34.3186C46.6476 33.9108 45.2245 34.4438 44.3366 35.4759C43.7796 36.1234 43.4451 36.8497 43.3456 37.6921C43.6566 37.3845 43.9659 37.0768 44.2769 36.771C43.0002 36.771 41.7253 36.7942 40.4505 36.7942C40.7506 37.0196 41.049 37.245 41.3474 37.4721C41.0761 35.8408 39.7868 34.51 38.2515 33.9591C36.6493 33.3813 34.8916 33.9144 33.6511 35.0019C32.9748 35.5922 32.4558 36.4025 32.2424 37.2736C32.5408 37.0482 32.841 36.8228 33.1394 36.5974C31.1936 36.4132 29.0616 36.3721 27.5281 37.7816C26.8283 38.4255 26.425 39.327 26.1755 40.225C25.9205 41.1426 25.7559 42.0924 25.6149 43.0333C25.4431 44.1816 25.3274 45.3336 25.302 46.4944C25.9223 46.4944 26.5426 46.4944 27.1628 46.4944C27.0597 42.4072 26.8301 38.3218 26.4829 34.2471C26.1303 30.142 25.6547 26.0476 25.0724 21.9675C24.7487 19.6905 24.3888 17.4188 23.9982 15.1525C23.9205 14.7017 23.3943 14.4352 22.9765 14.4907C22.5009 14.555 22.2026 14.9343 22.17 15.3975C21.9331 18.78 21.7107 22.1625 21.4937 25.5467C21.2767 28.9203 21.0633 32.2938 20.8409 35.6691C20.7143 37.5884 20.5841 39.5059 20.4503 41.4252C21.0579 41.3429 21.6673 41.2624 22.2767 41.1802C21.7758 39.9048 20.9747 38.7958 19.8789 37.9569C18.7957 37.1251 17.4611 36.576 16.1031 36.3864C15.2351 36.2665 14.3797 36.2647 13.5226 36.4704C13.9041 36.6851 14.2857 36.8997 14.6672 37.1144C14.349 35.628 12.8462 34.4474 11.3055 34.5243C9.8191 34.5977 8.2585 35.6977 7.99991 37.2128C8.30009 36.9874 8.59847 36.7602 8.89865 36.5348C8.14819 36.5348 7.39954 36.5348 6.64909 36.5348C6.16264 36.5348 5.69609 36.9588 5.7196 37.4578C5.7413 37.9569 6.12829 38.3808 6.64909 38.3808Z" fill="#002A40"/>
</g>
</g>
</g>
<g id="Clip path group_2">
<mask id="mask1_44_2931" style="mask-type:luminance" maskUnits="userSpaceOnUse" x="49" y="14" width="48" height="34">
<g id="e725e35564">
<path id="Vector_4" d="M49.3184 14.4834H96.8992V47.4173H49.3184V14.4834Z" fill="white"/>
</g>
</mask>
<g mask="url(#mask1_44_2931)">
<g id="Group_2">
<path id="Vector_5" d="M50.277 38.3808C51.0257 38.3808 51.7761 38.3808 52.5248 38.3808C52.8991 38.3808 53.3548 38.0964 53.4217 37.7029C53.4434 37.5795 53.4778 37.465 53.5139 37.3469C53.57 37.1609 53.4271 37.4954 53.5194 37.3398C53.5519 37.2861 53.579 37.2307 53.6116 37.177C53.6315 37.1448 53.6785 37.0375 53.7165 37.0196C53.6423 37.1144 53.626 37.1341 53.6694 37.0822C53.6911 37.0571 53.711 37.0339 53.7327 37.0106C53.8195 36.9141 53.9136 36.8282 54.0112 36.7423C54.1758 36.5992 53.8467 36.8497 54.0293 36.7298C54.0854 36.694 54.1378 36.6583 54.1939 36.6243C54.2499 36.5921 54.3078 36.5599 54.3657 36.5295C54.3946 36.5152 54.4235 36.5009 54.4525 36.4883C54.5157 36.4597 54.4904 36.4687 54.3783 36.517C54.4995 36.5009 54.6242 36.4293 54.7454 36.3989C54.7997 36.3864 54.8792 36.3828 54.9317 36.3613C54.7526 36.4311 54.8232 36.3739 54.9335 36.3685C54.9968 36.3649 55.0601 36.3649 55.1233 36.3667C55.145 36.3685 55.1667 36.3703 55.1866 36.3703C55.2915 36.381 55.2716 36.3774 55.1306 36.3595C55.1704 36.3256 55.4525 36.4329 55.5031 36.449C55.523 36.4561 55.5429 36.4633 55.5646 36.4704C55.6586 36.5062 55.6441 36.4991 55.5194 36.449C55.561 36.4436 55.6586 36.5152 55.6912 36.5331C55.7472 36.5653 55.8033 36.5974 55.8557 36.6314C55.8738 36.644 55.8919 36.6565 55.91 36.6672C55.9913 36.7262 55.9805 36.7155 55.8756 36.6368C55.9733 36.6726 56.089 36.8246 56.1577 36.898C56.1794 36.9212 56.3114 37.0482 56.2083 36.9498C56.1107 36.855 56.2481 37.0071 56.268 37.0375C56.3024 37.0911 56.3349 37.1448 56.3657 37.2002C56.3801 37.2271 56.476 37.4274 56.4145 37.2915C56.3566 37.1537 56.4362 37.3594 56.4452 37.3881C56.4687 37.4596 56.485 37.5312 56.5013 37.6045C56.608 38.1036 57.1794 38.3611 57.646 38.2484C57.74 38.2252 57.8358 38.2055 57.9317 38.1876C57.9805 38.1787 58.0293 38.1715 58.0782 38.1626C57.9534 38.1787 57.9443 38.1805 58.051 38.1679C58.2518 38.1518 58.4489 38.1375 58.6496 38.1393C58.8268 38.1393 59.004 38.1483 59.1794 38.1644C59.2265 38.1679 59.5574 38.1876 59.3114 38.1769C59.4127 38.1805 59.5176 38.2091 59.6152 38.227C59.9914 38.3003 60.3639 38.4005 60.7256 38.5275C60.8214 38.5615 60.9154 38.599 61.0095 38.6348C61.1089 38.6742 61.1035 38.6706 60.9968 38.6259C61.0438 38.6455 61.089 38.667 61.1342 38.6867C61.3006 38.7618 61.4652 38.8405 61.6261 38.9282C61.7798 39.0104 61.9299 39.0999 62.0764 39.1947C62.1541 39.2465 62.2319 39.2984 62.306 39.3521C62.344 39.3789 62.382 39.4075 62.4182 39.4344C62.3223 39.361 62.3151 39.3557 62.3965 39.4183C62.6641 39.6436 62.9191 39.8762 63.1542 40.1355C63.2156 40.2053 63.2753 40.2751 63.335 40.3466C63.3639 40.3824 63.3929 40.4182 63.4218 40.4557C63.3476 40.3609 63.3422 40.3538 63.4037 40.4343C63.4959 40.5684 63.59 40.699 63.6768 40.8367C63.7744 40.9941 63.8666 41.1551 63.9498 41.3197C63.9914 41.4037 64.0294 41.4878 64.071 41.5701C64.1126 41.6649 64.109 41.656 64.0601 41.5415C64.0764 41.5844 64.0945 41.6273 64.1108 41.6703C64.2807 42.1031 64.6424 42.3965 65.1307 42.3303C65.6063 42.2677 65.9046 41.8885 65.9372 41.4252C66.1759 38.0427 66.3965 34.6603 66.6135 31.276C66.8305 27.9025 67.0439 24.5272 67.2663 21.1536C67.3929 19.2343 67.5231 17.3168 67.6587 15.3975C67.0493 15.478 66.4399 15.5603 65.8305 15.6426C66.1777 17.646 66.4996 19.6547 66.7925 21.667C66.8667 22.1786 66.9408 22.6919 67.0113 23.2071C67.0927 23.792 67.1162 23.9637 67.194 24.545C67.3242 25.5432 67.4489 26.5413 67.5665 27.5394C68.0403 31.564 68.4001 35.6029 68.6406 39.6472C68.7763 41.9278 68.8721 44.2102 68.93 46.4944C68.9426 46.9774 69.3495 47.4407 69.8595 47.4174C70.373 47.3942 70.7781 47.0114 70.7908 46.4944C70.8106 45.575 70.883 44.6556 71.0023 43.7434C70.9788 43.9223 71.015 43.6611 71.024 43.6074C71.0403 43.4948 71.0566 43.3821 71.0747 43.2694C71.1126 43.0297 71.1542 42.7882 71.1994 42.5485C71.2772 42.1174 71.364 41.6864 71.4616 41.2571C71.5484 40.8707 71.6497 40.4861 71.7908 40.1159C71.8016 40.0872 71.8577 39.9388 71.8125 40.055C71.7709 40.1606 71.8161 40.0461 71.8233 40.03C71.8649 39.9406 71.9083 39.8529 71.9535 39.7671C72.0005 39.6812 72.0494 39.5971 72.1018 39.5149C72.1416 39.4522 72.2953 39.2609 72.1705 39.4057C72.3007 39.2573 72.4327 39.1213 72.581 38.9908C72.6208 38.955 72.6786 38.8727 72.5647 39.0015C72.59 38.9729 72.6533 38.9389 72.6823 38.9192C72.7636 38.8655 72.8468 38.8155 72.9318 38.769C73.0168 38.7225 73.1054 38.6813 73.1922 38.6384C73.2429 38.6151 73.3206 38.5507 73.1723 38.6455C73.2067 38.6241 73.2754 38.608 73.3098 38.5954C73.496 38.5293 73.6841 38.4774 73.8776 38.4345C73.9843 38.4112 74.0928 38.3951 74.2013 38.3736C74.3351 38.3486 74.0421 38.3862 74.194 38.3754C74.2664 38.3701 74.3387 38.3611 74.411 38.354C74.6714 38.3343 74.9336 38.3289 75.1959 38.3343C75.7203 38.3432 76.2447 38.3933 76.7673 38.4416C77.1579 38.4792 77.5738 38.1304 77.6642 37.7637C77.6986 37.6206 77.7438 37.4847 77.7944 37.3451C77.8487 37.1913 77.7203 37.4954 77.8143 37.3058C77.8523 37.2289 77.8921 37.1555 77.9355 37.0822C77.9735 37.0178 78.0132 36.9552 78.0548 36.8926C78.0747 36.864 78.2158 36.6672 78.1326 36.7781C78.053 36.8872 78.2049 36.694 78.2248 36.6726C78.2827 36.6082 78.3424 36.5438 78.4038 36.483C78.4581 36.4293 78.5123 36.3774 78.5702 36.3274C78.6028 36.2969 78.733 36.2182 78.7456 36.1807C78.7438 36.1843 78.6009 36.2844 78.6859 36.2254C78.7131 36.2057 78.7384 36.186 78.7655 36.1682C78.8378 36.1181 78.9102 36.0698 78.9843 36.0233C79.1145 35.9446 79.2483 35.8712 79.3858 35.805C79.4111 35.7943 79.4726 35.7568 79.5051 35.7514C79.5051 35.7514 79.3333 35.8176 79.4328 35.7836C79.5141 35.755 79.5937 35.7228 79.6769 35.6977C79.8198 35.653 79.9644 35.6154 80.1127 35.5886C80.3496 35.5457 79.9789 35.594 80.1489 35.5815C80.2339 35.5743 80.3189 35.5671 80.402 35.5654C80.4762 35.5636 80.7981 35.5332 80.8505 35.585C80.8541 35.5904 80.6552 35.5528 80.7619 35.5743C80.8035 35.5832 80.8469 35.5904 80.8885 35.5976C80.9735 35.6154 81.0567 35.6351 81.1398 35.6584C81.2122 35.678 81.2827 35.7013 81.3532 35.7263C81.384 35.7371 81.4147 35.7496 81.4436 35.7585C81.5648 35.7979 81.2863 35.6852 81.4002 35.7389C81.5467 35.8086 81.6914 35.8784 81.8288 35.9625C81.8939 36 81.9572 36.0412 82.0187 36.0841C82.0458 36.102 82.0711 36.1199 82.0983 36.1395C82.1869 36.2004 82.1073 36.1968 82.0639 36.1127C82.0856 36.1556 82.1742 36.2039 82.2122 36.2361C82.2773 36.2934 82.3388 36.3524 82.4002 36.4132C82.4599 36.474 82.5196 36.5366 82.5757 36.601C82.5865 36.6153 82.6516 36.6762 82.6588 36.6994C82.6353 36.6189 82.5666 36.576 82.6498 36.6905C82.7493 36.83 82.8397 36.9749 82.9192 37.1269C82.9409 37.1645 83.0549 37.3952 82.997 37.2754C82.9391 37.1555 83.0404 37.397 83.0531 37.4346C83.1109 37.6063 83.1507 37.7834 83.1814 37.9622C83.2466 38.3558 83.7023 38.6384 84.0784 38.6384C85.3533 38.6384 86.6281 38.6151 87.903 38.6151C88.4491 38.6151 88.7746 38.1894 88.8343 37.6921C88.7999 37.973 88.8397 37.685 88.8542 37.626C88.8705 37.5634 88.8885 37.5008 88.9084 37.4399C88.9211 37.3988 88.9356 37.3577 88.95 37.3165C88.988 37.2217 88.9826 37.236 88.9338 37.3559C88.9338 37.304 88.9989 37.2199 89.0224 37.177C89.0875 37.0536 89.1707 36.8711 89.2755 36.7799C89.1146 36.9194 89.2611 36.8014 89.3008 36.7549C89.3605 36.6869 89.422 36.6225 89.4889 36.5581C89.5359 36.5116 89.5866 36.4651 89.639 36.4222C89.6734 36.3917 89.7077 36.3631 89.7421 36.3363C89.6517 36.4043 89.6336 36.4186 89.6896 36.3792C89.8126 36.3023 89.9283 36.2218 90.0585 36.1556C90.0983 36.136 90.1363 36.1163 90.1779 36.0984C90.0549 36.1485 90.0405 36.1556 90.1363 36.1181C90.1978 36.1002 90.2575 36.0787 90.3208 36.0608C90.3931 36.0412 90.4654 36.0286 90.5396 36.0143C90.6101 36.0018 90.5812 36.0072 90.4491 36.0268C90.4907 36.0233 90.5323 36.0197 90.5757 36.0197C90.639 36.0179 90.7041 36.0197 90.7674 36.0233C90.8108 36.0251 90.8524 36.0286 90.8958 36.034C90.7529 36.0125 90.7349 36.0107 90.8379 36.0286C90.9736 36.0573 91.1056 36.0895 91.2376 36.1377C91.4618 36.2182 91.1164 36.0662 91.2792 36.1556C91.3352 36.186 91.3931 36.2129 91.4492 36.2433C91.5233 36.2862 91.5938 36.3345 91.6661 36.381C91.847 36.4955 91.5215 36.2486 91.6824 36.39C91.7945 36.4901 91.903 36.5903 92.0025 36.703C92.0296 36.7334 92.0568 36.7674 92.0839 36.7996C92.0115 36.7048 91.9953 36.6851 92.035 36.7405C92.0748 36.8032 92.1182 36.8622 92.1562 36.9266C92.1888 36.9802 92.2195 37.0375 92.2484 37.0929C92.2665 37.1323 92.2846 37.1698 92.3027 37.2074C92.2502 37.084 92.243 37.0697 92.2792 37.1645C92.319 37.3076 92.3624 37.4471 92.3859 37.5956C92.4528 37.9891 92.9067 38.2717 93.2828 38.2717C94.1725 38.2717 95.0604 38.2627 95.9501 38.2627C96.4365 38.2627 96.9013 37.8388 96.8796 37.3398C96.8579 36.8407 96.4709 36.4168 95.9501 36.4186C95.0604 36.4186 94.1725 36.4275 93.2828 36.4275C93.583 36.6529 93.8814 36.8783 94.1797 37.1054C93.9609 35.7907 92.8705 34.7032 91.6101 34.3186C90.2755 33.9108 88.8506 34.4438 87.9627 35.4759C87.4075 36.1234 87.073 36.8497 86.9735 37.6921C87.2827 37.3845 87.5938 37.0768 87.903 36.771C86.6281 36.771 85.3533 36.7942 84.0784 36.7942C84.3768 37.0196 84.6769 37.245 84.9753 37.4721C84.7023 35.8408 83.4147 34.51 81.8794 33.9591C80.2773 33.3813 78.5196 33.9144 77.2791 35.0019C76.6027 35.5922 76.0819 36.4025 75.8704 37.2736C76.1687 37.0482 76.4671 36.8228 76.7673 36.5974C74.8215 36.4132 72.6877 36.3721 71.156 37.7816C70.4562 38.4255 70.0529 39.327 69.8034 40.225C69.5484 41.1426 69.3839 42.0924 69.2428 43.0333C69.0692 44.1816 68.9553 45.3336 68.93 46.4944C69.5502 46.4944 70.1705 46.4944 70.7908 46.4944C70.6859 42.4072 70.458 38.3218 70.109 34.2471C69.7582 30.142 69.2826 26.0476 68.7003 21.9675C68.3766 19.6905 68.0168 17.4188 67.6244 15.1525C67.5466 14.7017 67.0222 14.4352 66.6045 14.4907C66.1289 14.555 65.8305 14.9343 65.7979 15.3975C65.5611 18.78 65.3386 22.1625 65.1216 25.5467C64.9046 28.9203 64.6912 32.2938 64.4688 35.6691C64.3422 37.5884 64.212 39.5059 64.0764 41.4252C64.6858 41.3429 65.2952 41.2624 65.9046 41.1802C65.4037 39.9048 64.6026 38.7958 63.5068 37.9569C62.4236 37.1251 61.089 36.576 59.731 36.3864C58.863 36.2665 58.0076 36.2647 57.1505 36.4704C57.532 36.6851 57.9136 36.8997 58.2952 37.1144C57.9751 35.628 56.4724 34.4474 54.9335 34.5243C53.447 34.5977 51.8864 35.6977 51.6278 37.2128C51.928 36.9874 52.2264 36.7602 52.5248 36.5348C51.7761 36.5348 51.0257 36.5348 50.277 36.5348C49.7906 36.5348 49.324 36.9588 49.3475 37.4578C49.3692 37.9569 49.7562 38.3808 50.277 38.3808Z" fill="#002A40"/>
</g>
</g>
</g>
<g id="Clip path group_3">
<mask id="mask2_44_2931" style="mask-type:luminance" maskUnits="userSpaceOnUse" x="92" y="14" width="49" height="34">
<g id="68d7938f01">
<path id="Vector_6" d="M92.918 14.4834H140.598V47.4173H92.918V14.4834Z" fill="white"/>
</g>
</mask>
<g mask="url(#mask2_44_2931)">
<g id="Group_3">
<path id="Vector_7" d="M93.9049 38.3808C94.6536 38.3808 95.4041 38.3808 96.1527 38.3808C96.527 38.3808 96.9827 38.0964 97.0496 37.7029C97.0713 37.5795 97.1057 37.465 97.1419 37.3469C97.1979 37.1609 97.0551 37.4954 97.1473 37.3398C97.178 37.2861 97.2052 37.2307 97.2377 37.177C97.2594 37.1448 97.3064 37.0375 97.3444 37.0196C97.2703 37.1144 97.254 37.1341 97.2974 37.0822C97.3173 37.0571 97.339 37.0339 97.3607 37.0106C97.4475 36.9141 97.5415 36.8282 97.6392 36.7423C97.8037 36.5992 97.4746 36.8497 97.6572 36.7298C97.7133 36.694 97.7657 36.6583 97.8218 36.6243C97.8779 36.5921 97.9357 36.5599 97.9936 36.5295C98.0207 36.5152 98.0515 36.5009 98.0804 36.4883C98.1437 36.4597 98.1184 36.4687 98.0062 36.517C98.1274 36.5009 98.2522 36.4293 98.3733 36.3989C98.4276 36.3864 98.5053 36.3828 98.5578 36.3613C98.3806 36.4311 98.4511 36.3739 98.5614 36.3685C98.6247 36.3649 98.688 36.3649 98.7513 36.3667C98.773 36.3685 98.7929 36.3703 98.8146 36.3703C98.9195 36.381 98.8996 36.3774 98.7585 36.3595C98.7983 36.3256 99.0804 36.4329 99.131 36.449C99.1509 36.4561 99.1708 36.4633 99.1907 36.4704C99.2865 36.5062 99.2721 36.4991 99.1473 36.449C99.1889 36.4436 99.2865 36.5152 99.3191 36.5331C99.3752 36.5653 99.4312 36.5974 99.4837 36.6314C99.5017 36.644 99.5198 36.6565 99.5379 36.6672C99.6193 36.7262 99.6084 36.7155 99.5035 36.6368C99.5994 36.6726 99.7169 36.8246 99.7856 36.898C99.8055 36.9212 99.9375 37.0482 99.8363 36.9498C99.7368 36.855 99.8761 37.0071 99.896 37.0375C99.9303 37.0911 99.9629 37.1448 99.9936 37.2002C100.008 37.2271 100.102 37.4274 100.042 37.2915C99.9846 37.1537 100.064 37.3594 100.073 37.3881C100.095 37.4596 100.113 37.5312 100.129 37.6045C100.236 38.1036 100.807 38.3611 101.272 38.2484C101.368 38.2252 101.464 38.2055 101.56 38.1876C101.608 38.1787 101.657 38.1715 101.706 38.1626C101.581 38.1787 101.572 38.1805 101.679 38.1679C101.878 38.1518 102.077 38.1375 102.278 38.1393C102.455 38.1393 102.632 38.1483 102.807 38.1644C102.853 38.1679 103.185 38.1876 102.939 38.1769C103.039 38.1805 103.144 38.2091 103.243 38.227C103.619 38.3003 103.99 38.4005 104.352 38.5275C104.448 38.5615 104.542 38.599 104.637 38.6348C104.735 38.6742 104.731 38.6706 104.625 38.6259C104.67 38.6455 104.717 38.667 104.762 38.6867C104.929 38.7618 105.093 38.8405 105.254 38.9282C105.408 39.0104 105.558 39.0999 105.704 39.1947C105.782 39.2465 105.858 39.2984 105.934 39.3521C105.972 39.3789 106.01 39.4075 106.046 39.4344C105.95 39.361 105.943 39.3557 106.024 39.4183C106.29 39.6436 106.547 39.8762 106.782 40.1355C106.844 40.2053 106.903 40.2751 106.963 40.3466C106.992 40.3824 107.021 40.4182 107.05 40.4557C106.976 40.3609 106.97 40.3538 107.032 40.4343C107.124 40.5684 107.218 40.699 107.305 40.8367C107.402 40.9941 107.495 41.1551 107.578 41.3197C107.619 41.4037 107.657 41.4878 107.697 41.5701C107.741 41.6649 107.735 41.656 107.686 41.5415C107.704 41.5844 107.722 41.6273 107.737 41.6703C107.909 42.1031 108.269 42.3965 108.759 42.3303C109.234 42.2677 109.533 41.8885 109.565 41.4252C109.804 38.0427 110.024 34.6603 110.241 31.276C110.458 27.9025 110.672 24.5272 110.894 21.1536C111.021 19.2343 111.151 17.3168 111.285 15.3975C110.677 15.478 110.068 15.5603 109.458 15.6426C109.806 17.646 110.128 19.6547 110.42 21.667C110.495 22.1786 110.569 22.6919 110.639 23.2071C110.721 23.792 110.744 23.9637 110.82 24.545C110.952 25.5432 111.077 26.5413 111.194 27.5394C111.668 31.564 112.028 35.6029 112.269 39.6472C112.404 41.9278 112.5 44.2102 112.558 46.4944C112.569 46.9774 112.976 47.4407 113.487 47.4174C114.001 47.3942 114.406 47.0114 114.419 46.4944C114.439 45.575 114.509 44.6556 114.63 43.7434C114.607 43.9223 114.643 43.6611 114.65 43.6074C114.668 43.4948 114.685 43.3821 114.703 43.2694C114.741 43.0297 114.782 42.7882 114.826 42.5485C114.905 42.1174 114.992 41.6864 115.088 41.2571C115.176 40.8707 115.278 40.4861 115.419 40.1159C115.43 40.0872 115.486 39.9388 115.44 40.055C115.399 40.1606 115.444 40.0461 115.451 40.03C115.493 39.9406 115.534 39.8529 115.581 39.7671C115.627 39.6812 115.677 39.5971 115.73 39.5149C115.77 39.4522 115.923 39.2609 115.798 39.4057C115.927 39.2573 116.061 39.1213 116.207 38.9908C116.249 38.955 116.307 38.8727 116.193 39.0015C116.218 38.9729 116.281 38.9389 116.31 38.9192C116.392 38.8655 116.475 38.8155 116.56 38.769C116.645 38.7225 116.732 38.6813 116.82 38.6384C116.869 38.6151 116.949 38.5507 116.8 38.6455C116.835 38.6241 116.903 38.608 116.938 38.5954C117.124 38.5293 117.312 38.4774 117.506 38.4345C117.612 38.4112 117.721 38.3951 117.831 38.3736C117.963 38.3486 117.67 38.3862 117.822 38.3754C117.894 38.3701 117.965 38.3611 118.039 38.354C118.299 38.3343 118.562 38.3289 118.822 38.3343C119.348 38.3432 119.871 38.3933 120.393 38.4416C120.784 38.4792 121.202 38.1304 121.292 37.7637C121.327 37.6206 121.372 37.4847 121.422 37.3451C121.477 37.1913 121.348 37.4954 121.442 37.3058C121.48 37.2289 121.52 37.1555 121.563 37.0822C121.601 37.0178 121.641 36.9552 121.683 36.8926C121.703 36.864 121.842 36.6672 121.761 36.7781C121.681 36.8872 121.833 36.694 121.853 36.6726C121.911 36.6082 121.97 36.5438 122.032 36.483C122.086 36.4293 122.14 36.3774 122.196 36.3274C122.231 36.2969 122.361 36.2182 122.372 36.1807C122.372 36.1843 122.229 36.2844 122.314 36.2254C122.341 36.2057 122.366 36.186 122.393 36.1682C122.464 36.1181 122.538 36.0698 122.612 36.0233C122.742 35.9446 122.876 35.8712 123.014 35.805C123.039 35.7943 123.1 35.7568 123.133 35.7514C123.133 35.7514 122.961 35.8176 123.061 35.7836C123.142 35.755 123.222 35.7228 123.305 35.6977C123.448 35.653 123.592 35.6154 123.741 35.5886C123.978 35.5457 123.607 35.594 123.777 35.5815C123.862 35.5743 123.947 35.5671 124.03 35.5654C124.104 35.5636 124.426 35.5332 124.477 35.585C124.482 35.5904 124.283 35.5528 124.39 35.5743C124.431 35.5832 124.475 35.5904 124.516 35.5976C124.601 35.6154 124.685 35.6351 124.768 35.6584C124.838 35.678 124.911 35.7013 124.981 35.7263C125.012 35.7371 125.043 35.7496 125.072 35.7585C125.193 35.7979 124.914 35.6852 125.028 35.7389C125.175 35.8086 125.319 35.8784 125.457 35.9625C125.522 36 125.585 36.0412 125.647 36.0841C125.674 36.102 125.699 36.1199 125.726 36.1395C125.815 36.2004 125.735 36.1968 125.692 36.1127C125.714 36.1556 125.802 36.2039 125.84 36.2361C125.903 36.2934 125.967 36.3524 126.028 36.4132C126.088 36.474 126.148 36.5366 126.202 36.601C126.214 36.6153 126.28 36.6762 126.287 36.6994C126.263 36.6189 126.195 36.576 126.278 36.6905C126.377 36.83 126.468 36.9749 126.547 37.1269C126.567 37.1645 126.683 37.3952 126.625 37.2754C126.567 37.1555 126.668 37.397 126.681 37.4346C126.737 37.6063 126.779 37.7834 126.809 37.9622C126.874 38.3558 127.33 38.6384 127.706 38.6384C128.981 38.6384 130.256 38.6151 131.531 38.6151C132.077 38.6151 132.403 38.1894 132.462 37.6921C132.428 37.973 132.468 37.685 132.482 37.626C132.497 37.5634 132.515 37.5008 132.536 37.4399C132.549 37.3988 132.563 37.3577 132.578 37.3165C132.616 37.2217 132.611 37.236 132.56 37.3559C132.562 37.304 132.627 37.2199 132.65 37.177C132.715 37.0536 132.797 36.8711 132.903 36.7799C132.743 36.9194 132.889 36.8014 132.929 36.7549C132.988 36.6869 133.052 36.6225 133.115 36.5581C133.164 36.5116 133.214 36.4651 133.267 36.4222C133.299 36.3917 133.334 36.3631 133.37 36.3363C133.28 36.4043 133.262 36.4186 133.318 36.3792C133.439 36.3023 133.556 36.2218 133.686 36.1556C133.724 36.136 133.764 36.1163 133.804 36.0984C133.683 36.1485 133.668 36.1556 133.764 36.1181C133.826 36.1002 133.885 36.0787 133.949 36.0608C134.021 36.0412 134.093 36.0286 134.166 36.0143C134.238 36.0018 134.207 36.0072 134.075 36.0268C134.119 36.0233 134.16 36.0197 134.204 36.0197C134.267 36.0179 134.332 36.0197 134.395 36.0233C134.437 36.0251 134.48 36.0286 134.522 36.034C134.381 36.0125 134.363 36.0107 134.464 36.0286C134.601 36.0573 134.733 36.0895 134.866 36.1377C135.09 36.2182 134.743 36.0662 134.907 36.1556C134.963 36.186 135.021 36.2129 135.077 36.2433C135.151 36.2862 135.222 36.3345 135.294 36.381C135.475 36.4955 135.149 36.2486 135.31 36.39C135.422 36.4901 135.531 36.5903 135.63 36.703C135.658 36.7334 135.686 36.7674 135.712 36.7996C135.639 36.7048 135.621 36.6851 135.663 36.7405C135.703 36.8032 135.746 36.8622 135.784 36.9266C135.817 36.9802 135.847 37.0375 135.876 37.0929C135.894 37.1323 135.913 37.1698 135.931 37.2074C135.878 37.084 135.871 37.0697 135.905 37.1645C135.945 37.3076 135.99 37.4471 136.014 37.5956C136.081 37.9891 136.535 38.2717 136.911 38.2717C137.8 38.2717 138.688 38.2627 139.576 38.2627C140.064 38.2627 140.529 37.8388 140.508 37.3398C140.484 36.8407 140.099 36.4168 139.576 36.4186C138.688 36.4186 137.8 36.4275 136.911 36.4275C137.209 36.6529 137.507 36.8783 137.808 37.1054C137.589 35.7907 136.498 34.7032 135.238 34.3186C133.903 33.9108 132.479 34.4438 131.591 35.4759C131.035 36.1234 130.701 36.8497 130.601 37.6921C130.911 37.3845 131.222 37.0768 131.531 36.771C130.256 36.771 128.981 36.7942 127.706 36.7942C128.005 37.0196 128.303 37.245 128.603 37.4721C128.33 35.8408 127.043 34.51 125.506 33.9591C123.903 33.3813 122.147 33.9144 120.905 35.0019C120.231 35.5922 119.71 36.4025 119.498 37.2736C119.797 37.0482 120.095 36.8228 120.393 36.5974C118.449 36.4132 116.316 36.3721 114.784 37.7816C114.084 38.4255 113.681 39.327 113.43 40.225C113.176 41.1426 113.01 42.0924 112.871 43.0333C112.697 44.1816 112.583 45.3336 112.558 46.4944C113.178 46.4944 113.798 46.4944 114.419 46.4944C114.314 42.4072 114.086 38.3218 113.737 34.2471C113.386 30.142 112.909 26.0476 112.328 21.9675C112.005 19.6905 111.643 17.4188 111.252 15.1525C111.175 14.7017 110.65 14.4352 110.232 14.4907C109.757 14.555 109.458 14.9343 109.426 15.3975C109.189 18.78 108.967 22.1625 108.75 25.5467C108.533 28.9203 108.319 32.2938 108.097 35.6691C107.97 37.5884 107.84 39.5059 107.704 41.4252C108.314 41.3429 108.923 41.2624 109.531 41.1802C109.032 39.9048 108.231 38.7958 107.135 37.9569C106.052 37.1251 104.715 36.576 103.359 36.3864C102.491 36.2665 101.636 36.2647 100.778 36.4704C101.16 36.6851 101.542 36.8997 101.923 37.1144C101.603 35.628 100.1 34.4474 98.5614 34.5243C97.075 34.5977 95.5144 35.6977 95.2558 37.2128C95.5541 36.9874 95.8543 36.7602 96.1527 36.5348C95.4041 36.5348 94.6536 36.5348 93.9049 36.5348C93.4185 36.5348 92.952 36.9588 92.9755 37.4578C92.9972 37.9569 93.3823 38.3808 93.9049 38.3808Z" fill="#002A40"/>
</g>
</g>
</g>
<g id="Clip path group_4">
<mask id="mask3_44_2931" style="mask-type:luminance" maskUnits="userSpaceOnUse" x="136" y="14" width="49" height="34">
<g id="cf2d51edc7">
<path id="Vector_8" d="M136.565 14.4834H184.197V47.4173H136.565V14.4834Z" fill="white"/>
</g>
</mask>
<g mask="url(#mask3_44_2931)">
<g id="Group_4">
<path id="Vector_9" d="M137.533 38.3808C138.282 38.3808 139.032 38.3808 139.781 38.3808C140.155 38.3808 140.611 38.0964 140.678 37.7029C140.697 37.5795 140.732 37.465 140.77 37.3469C140.826 37.1609 140.683 37.4954 140.775 37.3398C140.806 37.2861 140.833 37.2307 140.866 37.177C140.886 37.1448 140.934 37.0375 140.972 37.0196C140.896 37.1144 140.882 37.1341 140.925 37.0822C140.945 37.0571 140.967 37.0339 140.989 37.0106C141.074 36.9141 141.169 36.8282 141.267 36.7423C141.432 36.5992 141.103 36.8497 141.285 36.7298C141.339 36.694 141.394 36.6583 141.45 36.6243C141.506 36.5921 141.564 36.5599 141.622 36.5295C141.649 36.5152 141.678 36.5009 141.708 36.4883C141.772 36.4597 141.746 36.4687 141.634 36.517C141.754 36.5009 141.88 36.4293 141.999 36.3989C142.056 36.3864 142.133 36.3828 142.186 36.3613C142.009 36.4311 142.079 36.3739 142.188 36.3685C142.253 36.3649 142.316 36.3649 142.377 36.3667C142.399 36.3685 142.421 36.3703 142.443 36.3703C142.546 36.381 142.527 36.3774 142.386 36.3595C142.426 36.3256 142.708 36.4329 142.759 36.449C142.779 36.4561 142.799 36.4633 142.819 36.4704C142.914 36.5062 142.898 36.4991 142.775 36.449C142.815 36.4436 142.914 36.5152 142.947 36.5331C143.003 36.5653 143.057 36.5974 143.112 36.6314C143.13 36.644 143.148 36.6565 143.166 36.6672C143.247 36.7262 143.235 36.7155 143.131 36.6368C143.227 36.6726 143.343 36.8246 143.414 36.898C143.433 36.9212 143.565 37.0482 143.464 36.9498C143.365 36.855 143.504 37.0071 143.522 37.0375C143.558 37.0911 143.591 37.1448 143.622 37.2002C143.636 37.2271 143.73 37.4274 143.67 37.2915C143.611 37.1537 143.692 37.3594 143.701 37.3881C143.723 37.4596 143.741 37.5312 143.755 37.6045C143.864 38.1036 144.435 38.3611 144.9 38.2484C144.996 38.2252 145.09 38.2055 145.188 38.1876C145.236 38.1787 145.285 38.1715 145.334 38.1626C145.207 38.1787 145.198 38.1805 145.307 38.1679C145.506 38.1518 145.705 38.1375 145.905 38.1393C146.083 38.1393 146.258 38.1483 146.435 38.1644C146.481 38.1679 146.813 38.1876 146.567 38.1769C146.667 38.1805 146.772 38.2091 146.871 38.227C147.247 38.3003 147.618 38.4005 147.98 38.5275C148.075 38.5615 148.169 38.599 148.265 38.6348C148.363 38.6742 148.358 38.6706 148.253 38.6259C148.298 38.6455 148.343 38.667 148.39 38.6867C148.556 38.7618 148.721 38.8405 148.882 38.9282C149.036 39.0104 149.186 39.0999 149.332 39.1947C149.41 39.2465 149.486 39.2984 149.562 39.3521C149.6 39.3789 149.636 39.4075 149.674 39.4344C149.578 39.361 149.571 39.3557 149.651 39.4183C149.918 39.6436 150.175 39.8762 150.41 40.1355C150.472 40.2053 150.531 40.2751 150.591 40.3466C150.62 40.3824 150.649 40.4182 150.678 40.4557C150.604 40.3609 150.598 40.3538 150.66 40.4343C150.752 40.5684 150.846 40.699 150.933 40.8367C151.03 40.9941 151.123 41.1551 151.206 41.3197C151.247 41.4037 151.285 41.4878 151.327 41.5701C151.367 41.6649 151.363 41.656 151.314 41.5415C151.332 41.5844 151.349 41.6273 151.365 41.6703C151.535 42.1031 151.896 42.3965 152.387 42.3303C152.862 42.2677 153.16 41.8885 153.193 41.4252C153.43 38.0427 153.652 34.6603 153.869 31.276C154.086 27.9025 154.3 24.5272 154.522 21.1536C154.649 19.2343 154.779 17.3168 154.913 15.3975C154.303 15.478 153.694 15.5603 153.086 15.6426C153.432 17.646 153.754 19.6547 154.047 21.667C154.123 22.1786 154.195 22.6919 154.267 23.2071C154.349 23.792 154.372 23.9637 154.448 24.545C154.58 25.5432 154.705 26.5413 154.822 27.5394C155.296 31.564 155.656 35.6029 155.897 39.6472C156.032 41.9278 156.126 44.2102 156.186 46.4944C156.197 46.9774 156.604 47.4407 157.115 47.4174C157.627 47.3942 158.034 47.0114 158.045 46.4944C158.067 45.575 158.137 44.6556 158.258 43.7434C158.235 43.9223 158.271 43.6611 158.278 43.6074C158.294 43.4948 158.312 43.3821 158.331 43.2694C158.368 43.0297 158.41 42.7882 158.453 42.5485C158.533 42.1174 158.62 41.6864 158.718 41.2571C158.804 40.8707 158.906 40.4861 159.047 40.1159C159.056 40.0872 159.112 39.9388 159.068 40.055C159.027 40.1606 159.072 40.0461 159.079 40.03C159.121 39.9406 159.162 39.8529 159.209 39.7671C159.256 39.6812 159.305 39.5971 159.358 39.5149C159.397 39.4522 159.551 39.2609 159.426 39.4057C159.555 39.2573 159.687 39.1213 159.835 38.9908C159.877 38.955 159.935 38.8727 159.819 39.0015C159.846 38.9729 159.909 38.9389 159.938 38.9192C160.02 38.8655 160.103 38.8155 160.188 38.769C160.273 38.7225 160.359 38.6813 160.448 38.6384C160.499 38.6151 160.576 38.5507 160.428 38.6455C160.463 38.6241 160.529 38.608 160.566 38.5954C160.75 38.5293 160.94 38.4774 161.132 38.4345C161.24 38.4112 161.349 38.3951 161.457 38.3736C161.591 38.3486 161.296 38.3862 161.45 38.3754C161.52 38.3701 161.593 38.3611 161.667 38.354C161.927 38.3343 162.19 38.3289 162.45 38.3343C162.974 38.3432 163.499 38.3933 164.021 38.4416C164.412 38.4792 164.83 38.1304 164.918 37.7637C164.954 37.6206 165 37.4847 165.048 37.3451C165.105 37.1913 164.976 37.4954 165.07 37.3058C165.108 37.2289 165.148 37.1555 165.191 37.0822C165.229 37.0178 165.269 36.9552 165.309 36.8926C165.329 36.864 165.47 36.6672 165.388 36.7781C165.307 36.8872 165.461 36.694 165.481 36.6726C165.537 36.6082 165.596 36.5438 165.66 36.483C165.712 36.4293 165.768 36.3774 165.826 36.3274C165.859 36.2969 165.989 36.2182 166 36.1807C165.998 36.1843 165.857 36.2844 165.942 36.2254C165.969 36.2057 165.994 36.186 166.021 36.1682C166.092 36.1181 166.166 36.0698 166.24 36.0233C166.37 35.9446 166.504 35.8712 166.642 35.805C166.667 35.7943 166.728 35.7568 166.759 35.7514C166.761 35.7514 166.587 35.8176 166.689 35.7836C166.77 35.755 166.85 35.7228 166.931 35.6977C167.076 35.653 167.22 35.6154 167.369 35.5886C167.604 35.5457 167.235 35.594 167.405 35.5815C167.49 35.5743 167.573 35.5671 167.658 35.5654C167.73 35.5636 168.054 35.5332 168.106 35.585C168.11 35.5904 167.909 35.5528 168.018 35.5743C168.059 35.5832 168.103 35.5904 168.144 35.5976C168.228 35.6154 168.313 35.6351 168.394 35.6584C168.466 35.678 168.539 35.7013 168.609 35.7263C168.64 35.7371 168.669 35.7496 168.7 35.7585C168.821 35.7979 168.54 35.6852 168.656 35.7389C168.803 35.8086 168.945 35.8784 169.085 35.9625C169.148 36 169.213 36.0412 169.275 36.0841C169.302 36.102 169.327 36.1199 169.354 36.1395C169.441 36.2004 169.361 36.1968 169.32 36.1127C169.341 36.1556 169.43 36.2039 169.468 36.2361C169.531 36.2934 169.595 36.3524 169.656 36.4132C169.716 36.474 169.774 36.5366 169.83 36.601C169.842 36.6153 169.906 36.6762 169.913 36.6994C169.891 36.6189 169.822 36.576 169.904 36.6905C170.005 36.83 170.096 36.9749 170.175 37.1269C170.197 37.1645 170.311 37.3952 170.251 37.2754C170.193 37.1555 170.296 37.397 170.307 37.4346C170.365 37.6063 170.407 37.7834 170.437 37.9622C170.502 38.3558 170.956 38.6384 171.334 38.6384C172.609 38.6384 173.884 38.6151 175.159 38.6151C175.705 38.6151 176.03 38.1894 176.088 37.6921C176.056 37.973 176.096 37.685 176.11 37.626C176.126 37.5634 176.144 37.5008 176.162 37.4399C176.177 37.3988 176.19 37.3577 176.206 37.3165C176.244 37.2217 176.237 37.236 176.188 37.3559C176.19 37.304 176.255 37.2199 176.276 37.177C176.343 37.0536 176.425 36.8711 176.531 36.7799C176.37 36.9194 176.517 36.8014 176.555 36.7549C176.615 36.6869 176.678 36.6225 176.743 36.5581C176.792 36.5116 176.842 36.4651 176.893 36.4222C176.927 36.3917 176.962 36.3631 176.998 36.3363C176.908 36.4043 176.889 36.4186 176.944 36.3792C177.067 36.3023 177.184 36.2218 177.314 36.1556C177.352 36.136 177.392 36.1163 177.432 36.0984C177.311 36.1485 177.296 36.1556 177.39 36.1181C177.452 36.1002 177.513 36.0787 177.577 36.0608C177.647 36.0412 177.721 36.0286 177.794 36.0143C177.866 36.0018 177.835 36.0072 177.705 36.0268C177.747 36.0233 177.788 36.0197 177.832 36.0197C177.895 36.0179 177.96 36.0197 178.023 36.0233C178.065 36.0251 178.106 36.0286 178.15 36.034C178.009 36.0125 177.989 36.0107 178.092 36.0286C178.228 36.0573 178.361 36.0895 178.492 36.1377C178.716 36.2182 178.37 36.0662 178.535 36.1556C178.591 36.186 178.649 36.2129 178.705 36.2433C178.779 36.2862 178.85 36.3345 178.922 36.381C179.101 36.4955 178.777 36.2486 178.936 36.39C179.049 36.4901 179.159 36.5903 179.257 36.703C179.285 36.7334 179.313 36.7674 179.34 36.7996C179.266 36.7048 179.249 36.6851 179.291 36.7405C179.329 36.8032 179.374 36.8622 179.412 36.9266C179.445 36.9802 179.475 37.0375 179.502 37.0929C179.522 37.1323 179.54 37.1698 179.557 37.2074C179.504 37.084 179.497 37.0697 179.533 37.1645C179.573 37.3076 179.618 37.4471 179.642 37.5956C179.707 37.9891 180.163 38.2717 180.539 38.2717C181.427 38.2717 182.316 38.2627 183.204 38.2627C183.692 38.2627 184.157 37.8388 184.135 37.3398C184.112 36.8407 183.727 36.4168 183.204 36.4186C182.316 36.4186 181.427 36.4275 180.539 36.4275C180.839 36.6529 181.137 36.8783 181.436 37.1054C181.217 35.7907 180.126 34.7032 178.866 34.3186C177.531 33.9108 176.106 34.4438 175.219 35.4759C174.663 36.1234 174.327 36.8497 174.229 37.6921C174.539 37.3845 174.848 37.0768 175.159 36.771C173.884 36.771 172.609 36.7942 171.334 36.7942C171.633 37.0196 171.931 37.245 172.231 37.4721C171.958 35.8408 170.671 34.51 169.133 33.9591C167.531 33.3813 165.775 33.9144 164.533 35.0019C163.859 35.5922 163.338 36.4025 163.124 37.2736C163.425 37.0482 163.723 36.8228 164.021 36.5974C162.077 36.4132 159.944 36.3721 158.412 37.7816C157.712 38.4255 157.309 39.327 157.059 40.225C156.802 41.1426 156.638 42.0924 156.497 43.0333C156.325 44.1816 156.211 45.3336 156.186 46.4944C156.804 46.4944 157.425 46.4944 158.045 46.4944C157.942 42.4072 157.714 38.3218 157.365 34.2471C157.012 30.142 156.537 26.0476 155.956 21.9675C155.631 19.6905 155.273 17.4188 154.88 15.1525C154.802 14.7017 154.276 14.4352 153.859 14.4907C153.385 14.555 153.086 14.9343 153.052 15.3975C152.815 18.78 152.594 22.1625 152.376 25.5467C152.16 28.9203 151.947 32.2938 151.725 35.6691C151.596 37.5884 151.468 39.5059 151.332 41.4252C151.942 41.3429 152.549 41.2624 153.159 41.1802C152.66 39.9048 151.857 38.7958 150.763 37.9569C149.678 37.1251 148.343 36.576 146.985 36.3864C146.119 36.2665 145.264 36.2647 144.406 36.4704C144.788 36.6851 145.168 36.8997 145.549 37.1144C145.231 35.628 143.728 34.4474 142.188 34.5243C140.703 34.5977 139.142 35.6977 138.884 37.2128C139.182 36.9874 139.482 36.7602 139.781 36.5348C139.032 36.5348 138.282 36.5348 137.533 36.5348C137.046 36.5348 136.58 36.9588 136.603 37.4578C136.625 37.9569 137.01 38.3808 137.533 38.3808Z" fill="#002A40"/>
</g>
</g>
</g>
</g>
</svg>
