<svg width="25" height="24" viewBox="0 0 25 24" fill="none" xmlns="http://www.w3.org/2000/svg">
<g id="hugeicons:instagram">
<g id="Group">
<path id="Vector" d="M2.84961 12C2.84961 7.522 2.84961 5.282 4.24061 3.891C5.63161 2.5 7.87061 2.5 12.3496 2.5C16.8276 2.5 19.0676 2.5 20.4586 3.891C21.8496 5.282 21.8496 7.521 21.8496 12C21.8496 16.478 21.8496 18.718 20.4586 20.109C19.0676 21.5 16.8286 21.5 12.3496 21.5C7.87161 21.5 5.63161 21.5 4.24061 20.109C2.84961 18.718 2.84961 16.479 2.84961 12Z" stroke="#FE6F15" stroke-width="1.5" stroke-linecap="round" stroke-linejoin="round"/>
<path id="Vector_2" d="M17.8576 6.5H17.8476M16.8496 12C16.8496 13.1935 16.3755 14.3381 15.5316 15.182C14.6877 16.0259 13.5431 16.5 12.3496 16.5C11.1561 16.5 10.0115 16.0259 9.16763 15.182C8.32372 14.3381 7.84961 13.1935 7.84961 12C7.84961 10.8065 8.32372 9.66193 9.16763 8.81802C10.0115 7.97411 11.1561 7.5 12.3496 7.5C13.5431 7.5 14.6877 7.97411 15.5316 8.81802C16.3755 9.66193 16.8496 10.8065 16.8496 12Z" stroke="#FE6F15" stroke-width="1.5" stroke-linecap="round" stroke-linejoin="round"/>
</g>
</g>
</svg>
