<svg width="50" height="50" viewBox="0 0 50 50" fill="none" xmlns="http://www.w3.org/2000/svg">
<path d="M8.33366 41.6668C7.18783 41.6668 6.20727 41.2592 5.39199 40.4439C4.57671 39.6286 4.16838 38.6474 4.16699 37.5002V12.5002C4.16699 11.3543 4.57533 10.3738 5.39199 9.5585C6.20866 8.74322 7.18921 8.33488 8.33366 8.3335H41.667C42.8128 8.3335 43.7941 8.74183 44.6107 9.5585C45.4274 10.3752 45.8351 11.3557 45.8337 12.5002V37.5002C45.8337 38.646 45.426 39.6272 44.6107 40.4439C43.7955 41.2606 42.8142 41.6682 41.667 41.6668H8.33366ZM8.33366 16.6668H41.667V12.5002H8.33366V16.6668ZM22.8128 34.4793L34.5837 22.7085L31.5628 19.6877L22.8128 28.4377L18.4378 24.0627L15.417 27.0835L22.8128 34.4793Z" fill="#0077B6"/>
</svg>
