<svg width="50" height="50" viewBox="0 0 50 50" fill="none" xmlns="http://www.w3.org/2000/svg">
<path d="M24.9997 35.4168C26.1047 35.4168 27.1645 34.9778 27.946 34.1964C28.7274 33.415 29.1663 32.3552 29.1663 31.2502C29.1663 30.1451 28.7274 29.0853 27.946 28.3039C27.1645 27.5225 26.1047 27.0835 24.9997 27.0835C23.8946 27.0835 22.8348 27.5225 22.0534 28.3039C21.272 29.0853 20.833 30.1451 20.833 31.2502C20.833 32.3552 21.272 33.415 22.0534 34.1964C22.8348 34.9778 23.8946 35.4168 24.9997 35.4168ZM37.4997 16.6668C38.6047 16.6668 39.6645 17.1058 40.4459 17.8872C41.2274 18.6686 41.6663 19.7284 41.6663 20.8335V41.6668C41.6663 42.7719 41.2274 43.8317 40.4459 44.6131C39.6645 45.3945 38.6047 45.8335 37.4997 45.8335H12.4997C11.3946 45.8335 10.3348 45.3945 9.5534 44.6131C8.77199 43.8317 8.33301 42.7719 8.33301 41.6668V20.8335C8.33301 19.7284 8.77199 18.6686 9.5534 17.8872C10.3348 17.1058 11.3946 16.6668 12.4997 16.6668H14.583V12.5002C14.583 9.73749 15.6805 7.08797 17.634 5.13447C19.5875 3.18096 22.237 2.0835 24.9997 2.0835C26.3676 2.0835 27.7222 2.35293 28.986 2.87642C30.2498 3.3999 31.3981 4.16719 32.3654 5.13447C33.3326 6.10174 34.0999 7.25007 34.6234 8.51388C35.1469 9.77768 35.4163 11.1322 35.4163 12.5002V16.6668H37.4997ZM24.9997 6.25016C23.3421 6.25016 21.7524 6.90864 20.5803 8.08075C19.4082 9.25285 18.7497 10.8426 18.7497 12.5002V16.6668H31.2497V12.5002C31.2497 10.8426 30.5912 9.25285 29.4191 8.08075C28.247 6.90864 26.6573 6.25016 24.9997 6.25016Z" fill="#0077B6"/>
</svg>
