<svg width="50" height="50" viewBox="0 0 50 50" fill="none" xmlns="http://www.w3.org/2000/svg">
<g id="mdi:partnership">
<path id="Vector" d="M22.9167 12.5H29.1667L36.0209 5.62504C36.2145 5.42977 36.4449 5.27478 36.6988 5.16901C36.9527 5.06324 37.225 5.00879 37.5 5.00879C37.775 5.00879 38.0474 5.06324 38.3012 5.16901C38.5551 5.27478 38.7855 5.42977 38.9792 5.62504L44.3542 11.0209C44.7422 11.4112 44.96 11.9392 44.96 12.4896C44.96 13.04 44.7422 13.568 44.3542 13.9584L39.5834 18.75H22.9167V22.9167C22.9167 23.4692 22.6972 23.9991 22.3065 24.3898C21.9158 24.7805 21.3859 25 20.8334 25C20.2808 25 19.7509 24.7805 19.3602 24.3898C18.9695 23.9991 18.75 23.4692 18.75 22.9167V16.6667C18.75 15.5616 19.189 14.5018 19.9704 13.7204C20.7518 12.939 21.8116 12.5 22.9167 12.5ZM10.4167 22.9167V31.25L5.64586 36.0209C5.25783 36.4112 5.04004 36.9392 5.04004 37.4896C5.04004 38.04 5.25783 38.568 5.64586 38.9584L11.0209 44.3542C11.2145 44.5495 11.4449 44.7045 11.6988 44.8102C11.9527 44.916 12.225 44.9704 12.5 44.9704C12.775 44.9704 13.0474 44.916 13.3012 44.8102C13.5551 44.7045 13.7855 44.5495 13.9792 44.3542L22.9167 35.4167H31.25C31.8026 35.4167 32.3325 35.1972 32.7232 34.8065C33.1139 34.4158 33.3334 33.8859 33.3334 33.3334V31.25H35.4167C35.9692 31.25 36.4991 31.0305 36.8898 30.6398C37.2805 30.2491 37.5 29.7192 37.5 29.1667V27.0834H39.5834C40.1359 27.0834 40.6658 26.8639 41.0565 26.4732C41.4472 26.0825 41.6667 25.5526 41.6667 25V22.9167H27.0834V25C27.0834 26.1051 26.6444 27.1649 25.863 27.9463C25.0816 28.7277 24.0218 29.1667 22.9167 29.1667H18.75C17.645 29.1667 16.5851 28.7277 15.8037 27.9463C15.0223 27.1649 14.5834 26.1051 14.5834 25V18.75L10.4167 22.9167Z" fill="#002A40"/>
</g>
</svg>
