<svg width="50" height="50" viewBox="0 0 50 50" fill="none" xmlns="http://www.w3.org/2000/svg">
<g id="mingcute:love-fill">
<g id="Group">
<path id="Vector" d="M19.7875 12.0685C22.7458 8.10187 27.1938 6.94353 31.2854 8.05812C35.7021 9.2602 39.5854 13.0539 40.875 18.3373C40.9417 18.6081 40.9993 18.879 41.0479 19.1498C39.1863 18.4864 37.1614 18.4353 35.2688 19.0039C32.5875 17.0206 29.2667 16.6873 26.3146 17.7748C22.6167 19.1394 19.7292 22.5998 19.0604 26.9539C18.2063 32.5289 21.6021 37.5373 26.4042 41.7956L27.2125 42.4956C26.5604 42.5415 25.8979 42.4394 25.2646 42.3039C24.9392 42.2339 24.6155 42.1561 24.2938 42.0706L23.175 41.7581C13.2292 38.9602 6.57084 34.5831 4.66042 28.0414C3.13542 22.8206 4.60209 17.5935 7.82709 14.3435C10.8146 11.3331 15.2438 10.1123 19.7875 12.0685ZM23.1792 27.5852C24.0708 21.7685 30.7979 18.9019 34.2521 23.8935C34.2852 23.9399 34.3352 23.9714 34.3914 23.9812C34.4476 23.9909 34.5053 23.9781 34.5521 23.9456C39.5042 20.4373 44.8438 25.431 43.6917 31.2019C43.025 34.5491 39.9208 37.3269 34.3792 39.5352L33.4729 39.8894L32.925 40.1144C32.4521 40.2998 31.9521 40.4477 31.5 40.3685C31.05 40.2894 30.6313 39.9769 30.25 39.6435L29.6042 39.0602C24.7847 34.913 22.6431 31.088 23.1792 27.5852Z" fill="#002A40"/>
</g>
</g>
</svg>
