<svg width="24" height="24" viewBox="0 0 24 24" fill="none" xmlns="http://www.w3.org/2000/svg">
<g id="material-symbols-light:money-bag-outline">
<path id="Vector" d="M8.63 20C7.34467 20 6.25167 19.5497 5.351 18.649C4.45033 17.7483 4 16.655 4 15.369C4 14.8257 4.09233 14.299 4.277 13.789C4.46167 13.279 4.72833 12.814 5.077 12.394L8.589 8.177L6.509 4H17.491L15.411 8.177L18.923 12.394C19.2717 12.8133 19.5383 13.278 19.723 13.788C19.9077 14.2987 20 14.8257 20 15.369C20 16.655 19.5487 17.7483 18.646 18.649C17.7433 19.5497 16.6513 20 15.37 20H8.63ZM12 15.48C11.5527 15.48 11.1717 15.323 10.857 15.009C10.5423 14.6943 10.385 14.3133 10.385 13.866C10.385 13.418 10.5423 13.0367 10.857 12.722C11.1717 12.4073 11.5527 12.25 12 12.25C12.4473 12.25 12.8283 12.4073 13.143 12.722C13.4577 13.0367 13.615 13.418 13.615 13.866C13.615 14.314 13.4577 14.695 13.143 15.009C12.8283 15.323 12.4473 15.48 12 15.48ZM9.51 7.75H14.51L15.875 5H8.125L9.51 7.75ZM8.63 19H15.37C16.3833 19 17.2417 18.6453 17.945 17.936C18.6483 17.2267 19 16.371 19 15.369C19 14.9437 18.929 14.5303 18.787 14.129C18.645 13.7277 18.4367 13.365 18.162 13.041L14.582 8.75H9.442L5.858 13.035C5.582 13.3603 5.37 13.7243 5.222 14.127C5.074 14.5297 5 14.9437 5 15.369C5 16.3703 5.355 17.226 6.065 17.936C6.77433 18.6453 7.62933 19 8.63 19Z" fill="black"/>
</g>
</svg>
