<svg width="25" height="24" viewBox="0 0 25 24" fill="none" xmlns="http://www.w3.org/2000/svg">
<g id="ri:linkedin-fill">
<path id="Vector" d="M7.29004 5.00002C7.28977 5.53046 7.07881 6.03906 6.70355 6.41394C6.32829 6.78883 5.81947 6.99929 5.28904 6.99902C4.75861 6.99876 4.25 6.78779 3.87512 6.41253C3.50023 6.03727 3.28977 5.52846 3.29004 4.99802C3.2903 4.46759 3.50127 3.95899 3.87653 3.5841C4.25179 3.20922 4.76061 2.99876 5.29104 2.99902C5.82147 2.99929 6.33007 3.21026 6.70496 3.58552C7.07985 3.96078 7.2903 4.46959 7.29004 5.00002ZM7.35004 8.48002H3.35004V21H7.35004V8.48002ZM13.67 8.48002H9.69004V21H13.63V14.43C13.63 10.77 18.4 10.43 18.4 14.43V21H22.35V13.07C22.35 6.90002 15.29 7.13002 13.63 10.16L13.67 8.48002Z" fill="#FE6F15"/>
</g>
</svg>
