<svg width="32" height="30" viewBox="0 0 32 30" fill="none" xmlns="http://www.w3.org/2000/svg">
<rect x="0.5" y="0.5" width="31" height="29" rx="4.5" stroke="#D9EBF4"/>
<path d="M22 9H10C9.175 9 8.5075 9.675 8.5075 10.5L8.5 19.5C8.5 20.325 9.175 21 10 21H22C22.825 21 23.5 20.325 23.5 19.5V10.5C23.5 9.675 22.825 9 22 9ZM21.7 12.1875L16.3975 15.5025C16.1575 15.6525 15.8425 15.6525 15.6025 15.5025L10.3 12.1875C10.2248 12.1453 10.1589 12.0882 10.1064 12.0198C10.0539 11.9514 10.0158 11.8731 9.99443 11.7895C9.97307 11.706 9.96888 11.619 9.98212 11.5337C9.99536 11.4485 10.0258 11.3669 10.0715 11.2937C10.1172 11.2206 10.1772 11.1575 10.248 11.1082C10.3188 11.059 10.3989 11.0246 10.4834 11.0072C10.5678 10.9898 10.655 10.9897 10.7395 11.007C10.824 11.0242 10.9041 11.0584 10.975 11.1075L16 14.25L21.025 11.1075C21.0959 11.0584 21.176 11.0242 21.2605 11.007C21.345 10.9897 21.4322 10.9898 21.5166 11.0072C21.6011 11.0246 21.6812 11.059 21.752 11.1082C21.8228 11.1575 21.8828 11.2206 21.9285 11.2937C21.9742 11.3669 22.0046 11.4485 22.0179 11.5337C22.0311 11.619 22.0269 11.706 22.0056 11.7895C21.9842 11.8731 21.9461 11.9514 21.8936 12.0198C21.8411 12.0882 21.7752 12.1453 21.7 12.1875Z" fill="white"/>
</svg>
