<svg width="32" height="30" viewBox="0 0 32 30" fill="none" xmlns="http://www.w3.org/2000/svg">
<rect x="0.5" y="0.5" width="31" height="29" rx="4.5" stroke="#D9EBF4"/>
<path d="M20.05 22.5001C16.988 22.4961 14.0525 21.2779 11.8873 19.1128C9.72211 16.9476 8.50397 14.0121 8.5 10.9501C8.5 10.0351 8.86348 9.15754 9.51048 8.51054C10.1575 7.86354 11.035 7.50006 11.95 7.50006C12.1437 7.49887 12.3371 7.51645 12.5275 7.55256C12.7113 7.58072 12.8921 7.62592 13.0675 7.68756C13.1907 7.73078 13.3005 7.80541 13.386 7.90406C13.4715 8.00271 13.5297 8.12198 13.555 8.25006L14.5825 12.7501C14.6102 12.8722 14.6069 12.9993 14.5728 13.1199C14.5387 13.2404 14.475 13.3505 14.3875 13.4401C14.29 13.5451 14.2825 13.5526 13.36 14.0326C14.0982 15.6536 15.3945 16.9552 17.0125 17.7001C17.5 16.7701 17.5075 16.7626 17.6125 16.6651C17.7021 16.5775 17.8122 16.5138 17.9327 16.4798C18.0532 16.4457 18.1804 16.4424 18.3025 16.4701L22.8025 17.4976C22.9265 17.5263 23.0411 17.5862 23.1356 17.6714C23.23 17.7567 23.3012 17.8647 23.3425 17.9851C23.4059 18.163 23.4536 18.3462 23.485 18.5326C23.5145 18.7211 23.5295 18.9117 23.53 19.1026C23.5162 20.0136 23.1425 20.8823 22.4905 21.5188C21.8385 22.1553 20.9612 22.5081 20.05 22.5001Z" fill="white"/>
</svg>
