<svg width="32" height="30" viewBox="0 0 32 30" fill="none" xmlns="http://www.w3.org/2000/svg">
<rect x="0.5" y="0.5" width="31" height="29" rx="4.5" stroke="#D9EBF4"/>
<path d="M16 14.625C15.5027 14.625 15.0258 14.4275 14.6742 14.0758C14.3225 13.7242 14.125 13.2473 14.125 12.75C14.125 12.2527 14.3225 11.7758 14.6742 11.4242C15.0258 11.0725 15.5027 10.875 16 10.875C16.4973 10.875 16.9742 11.0725 17.3258 11.4242C17.6775 11.7758 17.875 12.2527 17.875 12.75C17.875 12.9962 17.8265 13.24 17.7323 13.4675C17.638 13.695 17.4999 13.9017 17.3258 14.0758C17.1517 14.2499 16.945 14.388 16.7175 14.4823C16.49 14.5765 16.2462 14.625 16 14.625ZM16 7.5C14.6076 7.5 13.2723 8.05312 12.2877 9.03769C11.3031 10.0223 10.75 11.3576 10.75 12.75C10.75 16.6875 16 22.5 16 22.5C16 22.5 21.25 16.6875 21.25 12.75C21.25 11.3576 20.6969 10.0223 19.7123 9.03769C18.7277 8.05312 17.3924 7.5 16 7.5Z" fill="white"/>
</svg>
