<svg width="50" height="50" viewBox="0 0 50 50" fill="none" xmlns="http://www.w3.org/2000/svg">
<path fill-rule="evenodd" clip-rule="evenodd" d="M30.2086 5.729C30.2086 5.3146 30.3732 4.91717 30.6662 4.62415C30.9592 4.33112 31.3567 4.1665 31.7711 4.1665H44.2711C44.6855 4.1665 45.0829 4.33112 45.3759 4.62415C45.669 4.91717 45.8336 5.3146 45.8336 5.729V18.229C45.8336 18.6434 45.669 19.0408 45.3759 19.3339C45.0829 19.6269 44.6855 19.7915 44.2711 19.7915C43.8567 19.7915 43.4592 19.6269 43.1662 19.3339C42.8732 19.0408 42.7086 18.6434 42.7086 18.229V9.49984L28.7086 23.4998C28.5655 23.6534 28.393 23.7765 28.2014 23.8619C28.0097 23.9473 27.8028 23.9932 27.593 23.9969C27.3832 24.0006 27.1748 23.962 26.9802 23.8834C26.7857 23.8048 26.6089 23.6879 26.4606 23.5395C26.3122 23.3911 26.1952 23.2144 26.1167 23.0198C26.0381 22.8253 25.9995 22.6169 26.0032 22.4071C26.0069 22.1973 26.0528 21.9904 26.1382 21.7987C26.2236 21.6071 26.3467 21.4346 26.5002 21.2915L40.5002 7.2915H31.7711C31.3567 7.2915 30.9592 7.12688 30.6662 6.83386C30.3732 6.54083 30.2086 6.1434 30.2086 5.729Z" fill="#0077B6"/>
<path d="M23.4378 5.729C11.9316 5.729 2.60449 15.0561 2.60449 26.5623C2.60449 38.0686 11.9316 47.3957 23.4378 47.3957C34.9441 47.3957 44.2712 38.0686 44.2712 26.5623C44.2698 25.3123 44.1628 24.0936 43.9503 22.9061C42.7654 22.8248 41.6554 22.2967 40.8448 21.4285C40.0343 20.5603 39.5835 19.4168 39.5837 18.229V17.0457L30.9191 25.7103C30.04 26.5893 28.8477 27.0832 27.6045 27.0832C26.3613 27.0832 25.169 26.5893 24.2899 25.7103C23.4108 24.8312 22.917 23.6389 22.917 22.3957C22.917 21.1525 23.4108 19.9602 24.2899 19.0811L32.9545 10.4165H31.7712C30.5834 10.4167 29.4399 9.96589 28.5717 9.15532C27.7035 8.34475 27.1754 7.23482 27.0941 6.04984C25.9052 5.83734 24.6864 5.73039 23.4378 5.729Z" fill="#0077B6"/>
</svg>
