<svg width="46" height="27" viewBox="0 0 46 27" fill="none" xmlns="http://www.w3.org/2000/svg">
<path id="Vector" d="M17.9014 0L12.8428 6.79688L7.83301 0.0488281L0 9.92188L2.14258 11.6211L7.75488 4.54101L12.8428 11.3672L17.9014 4.58984L22.9404 11.377L27.9893 4.58008L33.0479 11.377L38.126 4.54101L43.751 11.6211L45.8994 9.92188L38.0479 0.0488281L33.0479 6.78711L27.9893 0.00976548L22.9404 6.78711L17.9014 0ZM17.9014 15.2734L12.8428 22.041L7.83301 15.3223L0.00390634 25.166L2.14453 26.8652L7.76465 19.7949L12.8428 26.6113L17.9014 19.8438L22.9404 26.6113L27.9893 19.8438L33.0479 26.6113L38.126 19.7949L43.7607 26.8652L45.8896 25.166L38.0479 15.3223L33.0479 22.041L27.9893 15.2734L22.9404 22.041L17.9014 15.2734Z" fill="black"/>
</svg>
