<svg width="24" height="24" viewBox="0 0 24 24" fill="none" xmlns="http://www.w3.org/2000/svg">
<g id="material-symbols-light:verified-outline">
<path id="Vector" d="M9.02319 21.23L7.35319 18.416L4.17719 17.731L4.48919 14.454L2.34619 12L4.49019 9.54604L4.17719 6.27004L7.35419 5.58504L9.02319 2.77004L12.0002 4.02704L14.9772 2.76904L16.6472 5.58504L19.8232 6.26904L19.5112 9.54604L21.6552 12L19.5132 14.454L19.8242 17.731L16.6472 18.415L14.9782 21.231L12.0002 19.973L9.02319 21.23ZM9.45019 19.95L12.0002 18.889L14.5622 19.95L16.0002 17.55L18.7502 16.939L18.5002 14.1L20.3502 12L18.5002 9.88904L18.7502 7.05004L16.0002 6.45004L14.5502 4.05004L12.0002 5.11204L9.43919 4.05004L8.00019 6.45004L5.25019 7.05004L5.50019 9.88904L3.65019 12L5.50019 14.1L5.25019 16.95L8.00019 17.55L9.45019 19.95ZM10.9502 14.858L15.9082 9.90004L15.2002 9.18004L10.9502 13.43L8.80019 11.292L8.09219 12L10.9502 14.858Z" fill="black"/>
</g>
</svg>
